<svg width="70" height="70" viewBox="0 0 70 70" fill="none" xmlns="http://www.w3.org/2000/svg">
<path d="M41.4941 0.191444C40.6875 0.45121 40.1953 0.724648 39.4434 1.36723C39.0469 1.68168 38.459 2.0098 38.0488 2.13285C37.4199 2.31059 37.1191 2.31059 36.3398 2.10551C36.2168 2.06449 35.6973 1.72269 35.1777 1.33988C33.5918 0.164101 32.6895 -0.095665 31.6777 0.328163C31.0762 0.574257 30.3789 1.39457 30.2695 1.99613C30.1328 2.74809 30.3105 5.16801 30.625 6.71293C31.1582 9.31059 32.2383 11.6758 33.6328 13.2754L34.3301 14.0684L33.2637 14.7793C32.0332 15.5996 30.5156 16.7754 29.7773 17.4864L29.2578 17.9649V13.4532C29.2578 10.3907 29.2031 8.77738 29.0938 8.46293C28.5742 6.93168 26.9199 5.74223 24.3086 5.05863C22.5996 4.60746 19.1543 4.52543 17.2812 4.89457C14.7383 5.40043 12.9199 6.39848 12.0996 7.71098L11.6895 8.3809L11.6484 14.711L11.6074 21.0274L10.8691 21.1231C8.29883 21.4375 5.75586 22.7774 4.96289 24.2266C4.73047 24.6504 4.7168 25.5664 4.64844 39.9766L4.58008 55.2754L3.89648 55.5079C2.14648 56.0957 0.724609 57.1485 0.259766 58.1739C0.0273438 58.6661 0 59.1309 0 62.4532C0 65.8575 0.0273438 66.2266 0.259766 66.6914C0.943359 68.0313 2.99414 69.2207 5.46875 69.7266C6.72656 69.9864 7.20508 70.0137 9.29688 69.959C11.1016 69.9043 11.9355 69.8223 12.6875 69.6172C14.8066 69.0293 16.5566 67.9356 17.1719 66.7871C17.3086 66.5274 17.4863 66.336 17.5684 66.3633C18.5801 66.8282 19.9746 67.293 20.9043 67.4707C22.5176 67.7989 26.25 67.7032 27.8223 67.2793C30.0918 66.6778 31.8008 65.5704 32.4023 64.3399C32.6621 63.7793 32.6758 63.5469 32.6758 55.3848C32.6758 47.4414 32.6621 46.9903 32.416 46.5118C32.0469 45.8008 31.1309 44.9395 30.2285 44.4473C28.5879 43.5723 25.2656 42.9434 23.2148 43.1075L22.2852 43.1895V34.3301C22.2852 24.1993 22.3125 24.5411 21.2051 23.3926C20.1523 22.3125 17.9648 21.3692 15.9277 21.1231C15.5586 21.0821 14.9844 21.0137 14.6562 20.9727L14.082 20.9043V16.8164V12.7286L14.6836 12.9883C18.0059 14.4102 22.8184 14.4239 25.9629 13.043C26.3594 12.8653 26.7148 12.7149 26.7422 12.7149C26.7695 12.7149 26.7969 14.4375 26.7969 16.543V20.3711L25.5801 21.875C24.9102 22.709 24.3359 23.5157 24.3086 23.6934C24.1855 24.295 24.4453 24.8418 24.9648 25.0879C25.7441 25.4571 26.1543 25.1973 27.4941 23.5157C29.7227 20.7403 32.6211 18.1289 35.4238 16.3926L36.5449 15.6954L37.3105 15.9414C37.7344 16.0782 38.0898 16.2012 38.1172 16.2149C38.1309 16.2286 37.6797 16.6934 37.0918 17.2403C34.8633 19.3731 35 19.1954 35 19.8106C35 20.5625 35.4648 21.0547 36.1484 21.0547C36.709 21.0547 36.8184 20.9727 39.6621 18.293C40.7695 17.2539 41.7402 16.4063 41.8223 16.4063C41.9316 16.4063 41.9727 17.0215 41.9727 18.3887C41.9727 20.3301 41.9863 20.3985 42.3145 20.7129C42.793 21.2051 43.5176 21.1778 44.0371 20.6582L44.4336 20.2618V18.334C44.4336 17.2676 44.4883 16.4063 44.5566 16.4063C44.625 16.4063 45.7188 17.377 46.9766 18.5664C48.248 19.7696 49.4238 20.8086 49.5879 20.8907C50.4219 21.3418 51.4062 20.7676 51.4062 19.8379C51.4062 19.3868 51.2832 19.2227 49.7793 17.7735L48.1523 16.2012L48.959 15.9551C49.9023 15.6817 49.9434 15.6954 51.625 16.8301C57.2441 20.6172 61.9336 26.6602 64.709 33.7012C66.0078 36.9688 67.0059 40.8516 67.4023 44.0645C67.6484 45.9922 67.5117 49.6426 67.1426 51.1055C65.9258 55.918 62.7539 58.8848 57.4219 60.1973C56.3145 60.4707 55.7812 60.4844 46.5117 60.5528L36.75 60.6348L36.4219 61.0176C36.2441 61.2227 36.0938 61.5508 36.0938 61.7422C36.0938 62.2481 36.4629 62.877 36.8184 62.959C36.9824 63 41.5215 63.0137 46.8945 62.9864C57.5449 62.9317 57.0938 62.9727 59.8145 62.1114C64.2988 60.7032 67.6211 57.5176 69.0703 53.252C69.8496 50.9688 70.041 49.4102 69.959 46.211C69.7402 37.9668 66.2539 28.752 60.7441 21.875C59.7598 20.6582 57.2852 18.0879 56.123 17.0899L55.4395 16.502L56.2598 16.5977C58.6387 16.8711 61.1133 17.8692 62.4531 19.086C63.1367 19.7012 63.3555 19.8243 63.7793 19.8243C64.4355 19.8243 64.7363 19.6465 64.9414 19.1543C65.1602 18.5938 65.0371 18.1426 64.4492 17.5C63.4785 16.42 61.4414 15.2989 59.418 14.711L58.6523 14.4786L59.1992 13.7676C60.498 12.045 60.6895 10.2403 59.8145 8.24418C59.377 7.2598 58.1328 5.98832 57.1074 5.46879C56.6562 5.25004 56.2051 5.05863 56.123 5.05863C56 5.05863 55.9727 4.66215 56.0273 3.50004C56.0957 1.99613 56.082 1.9141 55.7402 1.32621C55.3164 0.601601 54.4824 0.136757 53.6484 0.136757C53.0059 0.136757 51.9531 0.628944 51.1875 1.28519C49.6973 2.55668 48.2891 2.57035 46.8262 1.35355C45.6777 0.382851 44.8438 0.0820694 43.3398 0.0410538C42.5469 0.01371 41.8223 0.0820694 41.4941 0.191444ZM44.2969 2.66605C44.5156 2.77543 45.0898 3.17191 45.5684 3.54105C46.7168 4.40238 47.6055 4.70316 49.0137 4.68949C50.3945 4.67582 51.3516 4.33402 52.5273 3.41801C53.0059 3.04887 53.4434 2.73441 53.5117 2.73441C53.8125 2.73441 53.3066 6.20707 52.7598 7.92973C52.0625 10.0625 50.4355 12.3731 49.0273 13.1934C48.5488 13.4805 46.9082 14.0137 46.8125 13.9043C46.7988 13.8907 47.1133 13.2071 47.5098 12.3868C48.4668 10.418 49.1641 8.3809 49.0273 7.88871C48.8906 7.30082 48.4668 6.97269 47.8789 6.97269C47.0859 6.97269 46.8262 7.24613 46.4023 8.50394C45.9102 10.0215 45.2676 11.4024 44.4336 12.7969C43.7363 13.9317 43.7227 13.9454 43.1895 13.9454C42.6836 13.9454 42.6152 13.9043 42.0957 13.084C41.3711 11.9903 40.4551 10.0625 39.9902 8.68168C39.5254 7.31449 39.2383 6.97269 38.5273 6.97269C37.8301 6.97269 37.3242 7.45121 37.3242 8.12113C37.3242 8.76371 38.0215 10.7051 38.8828 12.4825L39.6074 13.9454L39.1152 13.8633C38.0488 13.6719 37.1738 13.2344 36.3672 12.4825C34.7812 11.0196 33.6055 8.79105 33.0859 6.26176C32.7852 4.83988 32.5938 2.73441 32.7578 2.73441C32.8262 2.73441 33.2637 3.04887 33.7422 3.41801C34.918 4.33402 35.875 4.67582 37.2559 4.68949C38.6641 4.70316 39.5527 4.40238 40.6875 3.54105C41.1797 3.17191 41.7402 2.7891 41.9453 2.67973C42.4238 2.40629 43.791 2.40629 44.2969 2.66605ZM24.0078 7.54691C25.9219 8.12113 27.002 8.94144 26.6602 9.57035C26.4004 10.0625 25.4297 10.6504 24.2949 11.0059C21.2598 11.9629 17.3496 11.7032 15.0664 10.3907C14.1777 9.87113 13.9453 9.46098 14.2734 8.95512C14.6973 8.31254 16.0645 7.66996 17.7734 7.30082C19.2227 7.00004 22.6133 7.13676 24.0078 7.54691ZM56.2734 7.91605C57.0664 8.4766 57.5312 9.07816 57.75 9.83012C58.3105 11.7305 56.6016 13.5215 53.8945 13.8907C53.5117 13.9317 52.9785 13.9317 52.7188 13.8907L52.2402 13.795L52.9922 12.8106C53.4023 12.2637 53.9766 11.3614 54.2637 10.8008C54.7012 9.93949 54.9199 9.39262 55.4395 7.68363C55.5215 7.43754 55.6855 7.47855 56.2734 7.91605ZM15.2578 23.5293C17.5957 23.8575 19.5645 24.7871 19.6602 25.6075C19.7559 26.3594 18.3066 27.1934 16.1465 27.6446C14.5605 27.9727 11.5391 27.9317 10.1855 27.5625C8.98242 27.2207 7.875 26.6875 7.4375 26.2364C7.10938 25.8946 7.08203 25.7852 7.19141 25.4707C7.66992 24.0762 11.9082 23.0645 15.2578 23.5293ZM19.8242 36.2852V43.586L19.1133 43.8321C17.3906 44.3926 16.1055 45.295 15.5176 46.3614L15.1074 47.0996L15.0664 51.584C15.0254 55.7266 14.998 56.0684 14.793 55.9864C12.5098 55.0567 11.334 54.8243 8.95508 54.8243H7.10938V41.9727C7.10938 34.9043 7.12305 29.1211 7.15039 29.1211C7.17773 29.1211 7.71094 29.3125 8.35352 29.545C10.0352 30.1602 11.252 30.3516 13.4395 30.3516C15.6953 30.3516 17.3223 30.0645 18.7988 29.4219C19.332 29.2032 19.7695 29.0118 19.7969 28.9981C19.8105 28.9844 19.8242 32.2657 19.8242 36.2852ZM27.0566 45.9375C28.834 46.3614 30.2148 47.1954 30.2148 47.8379C30.2148 48.2071 29.2441 49 28.3555 49.3282C26.8926 49.9024 25.5527 50.0801 23.3926 49.9981C20.7402 49.9024 19.0176 49.4239 18.0195 48.4942C17.3086 47.8379 17.5957 47.25 18.9492 46.5801C20.9727 45.5684 24.3633 45.295 27.0566 45.9375ZM20.8086 52.2813C22.2305 52.5684 25.6211 52.5684 27.0293 52.2813C27.918 52.1036 28.752 51.8301 29.9824 51.3379C30.2012 51.2422 30.2148 51.584 30.2148 57.2579V63.2735L29.7227 63.711C29.1621 64.2032 28.4102 64.5586 27.2344 64.8731C26.168 65.1739 22.873 65.2969 21.6562 65.0918C19.5918 64.7227 17.9238 63.9161 17.6504 63.1368C17.5547 62.8633 17.5 60.7168 17.5 56.9434V51.1739L18.6348 51.625C19.25 51.8711 20.2344 52.1719 20.8086 52.2813ZM11.416 57.4903C12.8242 57.7911 13.8496 58.2012 14.4785 58.7481C15.4219 59.5411 15.1895 60.0606 13.5215 60.8399C12.168 61.4688 10.8828 61.7012 8.75 61.7012C6.61719 61.7012 5.33203 61.4688 3.97852 60.8399C2.63867 60.211 2.1875 59.6641 2.57031 59.1172C2.98047 58.5293 4.42969 57.8457 5.97461 57.5039C7.21875 57.2442 10.1855 57.2305 11.416 57.4903ZM4.60742 63.6973C7.68359 64.5996 11.5801 64.3809 14.4375 63.1641L15.0391 62.9043V64.2715C15.0391 65.584 15.0254 65.6524 14.6699 65.9942C14.1367 66.4727 13.4531 66.8008 12.209 67.1563C11.2793 67.4297 10.8281 67.4707 8.75 67.4707C6.67188 67.4707 6.2207 67.4297 5.29102 67.1563C4.04688 66.8008 3.36328 66.4727 2.84375 65.9942C2.47461 65.6524 2.46094 65.584 2.46094 64.2715V62.9043L3.0625 63.1641C3.4043 63.3008 4.10156 63.5469 4.60742 63.6973Z" fill="#00CCFF"/>
<path d="M42.4102 25.9082C42.0137 26.2363 41.9727 26.3457 41.9727 27.0703V27.8496L41.1934 28.0137C39.6622 28.3144 38.4727 29.1894 37.7481 30.5566C37.4336 31.1719 37.3926 31.3906 37.3926 32.6758C37.3926 33.9746 37.4336 34.1797 37.7618 34.7949C38.4727 36.1211 39.7989 37.0918 41.1797 37.2969L41.9043 37.3926L41.9454 39.6894L41.9727 41.9863L41.6036 41.8906C40.5918 41.6445 39.9219 40.8789 39.7442 39.7305C39.6211 38.9785 39.3204 38.582 38.7735 38.4863C38.1719 38.3633 37.502 38.7051 37.379 39.1836C37.2149 39.8125 37.42 41.0703 37.7891 41.8086C38.4727 43.1484 39.6211 43.9961 41.1934 44.3105L41.9727 44.4746V45.2402C41.9864 46.334 42.5059 46.8672 43.4083 46.7031C44.0645 46.5801 44.3379 46.1836 44.4063 45.2676L44.461 44.4609L45.2403 44.3105C46.7579 44.0098 47.9747 43.0391 48.6583 41.5625C49.1641 40.4687 49.1641 38.8144 48.6446 37.707C47.9747 36.2578 46.5254 35.1641 45.1036 35.0273L44.4336 34.959V32.6621V30.3652L44.8848 30.5019C45.1172 30.5703 45.4727 30.7344 45.6641 30.8711C46.1016 31.1855 46.6211 32.1973 46.6211 32.7441C46.6348 33.8242 47.9063 34.2891 48.6993 33.4824C49.0958 33.0859 49.1094 33.0312 49.0274 32.2383C48.8086 30.0918 47.3321 28.4648 45.2403 28.041L44.461 27.8769L44.4063 27.0566C44.3379 26.0996 44.0645 25.7305 43.3262 25.6211C42.9434 25.5527 42.7657 25.6074 42.4102 25.9082ZM41.9727 32.6074V34.8633H41.6446C41.2208 34.8633 40.4825 34.3437 40.0997 33.7832C39.2247 32.498 40.2364 30.5566 41.877 30.3652C41.9317 30.3516 41.9727 31.3633 41.9727 32.6074ZM45.7461 37.9394C47.1817 39.0332 46.6622 41.3164 44.8575 41.8359L44.4336 41.959V39.6894V37.4199L44.8711 37.5156C45.1036 37.5566 45.5 37.748 45.7461 37.9394Z" fill="#003399"/>
<path d="M63.246 47.0449C62.9726 47.3594 62.8906 47.6191 62.8906 48.0703C62.8906 49.0273 62.4941 50.5586 61.9746 51.6797C60.8124 54.127 58.1874 55.6172 54.6191 55.877C53.5253 55.959 53.3476 56 53.0195 56.3418C52.5273 56.834 52.5136 57.3945 53.0058 57.9824L53.3749 58.4199L54.7558 58.3379C58.0097 58.1465 61.1953 56.793 62.8359 54.9062C64.3261 53.2109 65.3515 50.4355 65.3515 48.1113C65.3515 47.4277 65.2968 47.2363 65.0097 46.9629C64.5039 46.4434 63.7109 46.4844 63.246 47.0449Z" fill="#00CCFF"/>
</svg>
