<svg width="24" height="24" viewBox="0 0 24 24" fill="none" xmlns="http://www.w3.org/2000/svg">
<g clip-path="url(#clip0_119_17)">
<path d="M4.14865 0.820288C2.78458 1.12498 1.71583 1.9781 1.12521 3.2531C0.740835 4.06872 0.773647 3.2906 0.773647 12C0.773647 20.7093 0.740835 19.9312 1.12521 20.7468C1.58458 21.7359 2.27365 22.425 3.25333 22.875C4.07833 23.2547 3.33302 23.2265 12.0236 23.2265C20.7049 23.2265 19.9315 23.2593 20.7471 22.875C21.7361 22.4156 22.4252 21.7265 22.8752 20.7468C23.2549 19.9218 23.2268 20.6672 23.2268 11.9765C23.2268 3.29529 23.2596 4.06872 22.8752 3.2531C22.4158 2.26872 21.7315 1.58435 20.7471 1.12498C19.9361 0.745287 20.7377 0.778099 12.1174 0.764038C5.85021 0.75935 4.37833 0.768724 4.14865 0.820288ZM19.6408 2.3531C20.6627 2.67185 21.4174 3.44997 21.6611 4.4531C21.7596 4.83747 21.7596 19.1625 21.6611 19.5468C21.4596 20.3718 20.8877 21.0843 20.133 21.4406C19.5002 21.7453 19.983 21.7265 11.9533 21.7265H4.6174L4.23771 21.6C3.13146 21.2203 2.41427 20.3297 2.2924 19.1718C2.24083 18.6515 2.24083 5.34841 2.2924 4.8281C2.3674 4.12029 2.62052 3.58591 3.10333 3.1031C3.55802 2.64841 4.11583 2.37185 4.73458 2.29685C4.90333 2.2781 8.26896 2.26404 12.2111 2.26872C18.7783 2.2781 19.4065 2.28279 19.6408 2.3531Z" fill="#898989"/>
<path d="M4.63594 4.63594L4.5 4.77656L4.50938 7.48594C4.52344 10.1109 4.52813 10.2 4.61719 10.3219C4.73438 10.4859 5.04375 10.6406 5.25 10.6406C5.45625 10.6406 5.76562 10.4859 5.88281 10.3219C5.97188 10.2047 5.97656 10.1016 6 8.65781L6.02344 7.125L11.4609 12.5625L16.8984 18H15.4031C13.7109 18 13.6781 18.0047 13.4766 18.3516C13.2703 18.6984 13.3594 19.1437 13.6781 19.3828C13.8 19.4719 13.8891 19.4766 16.5141 19.4906L19.2234 19.5L19.3641 19.3641L19.5 19.2234L19.4906 16.5141C19.4766 13.8891 19.4719 13.8 19.3828 13.6781C19.2609 13.5141 18.9563 13.3594 18.7406 13.3594C18.5063 13.3594 18.1922 13.5422 18.0891 13.7344C18.0094 13.8844 18 14.025 18 15.3984V16.8984L12.5625 11.4609L7.125 6.02344L8.65781 6C10.1016 5.97656 10.2047 5.97187 10.3219 5.88281C10.4859 5.76562 10.6406 5.45625 10.6406 5.25C10.6406 5.04375 10.4859 4.73437 10.3219 4.61719C10.2 4.52812 10.1109 4.52344 7.48594 4.50937L4.77656 4.5L4.63594 4.63594Z" fill="#898989"/>
</g>
<defs>
<clipPath id="clip0_119_17">
<rect width="24" height="24" fill="white"/>
</clipPath>
</defs>
</svg>
