<svg width="20" height="20" viewBox="0 0 20 20" fill="none" xmlns="http://www.w3.org/2000/svg">
<g clip-path="url(#clip0_112_688)">
<path d="M3.40625 0.0742188C3.25 0.113281 2.96875 0.222656 2.78125 0.3125C2.5 0.453125 2.375 0.546875 2.06641 0.855469C1.74219 1.18359 1.66797 1.28125 1.51172 1.60156C1.19531 2.26562 1.21094 2.03516 1.21094 6.05859V9.62891L0.96875 9.74219C0.644531 9.89453 0.324219 10.2148 0.152344 10.5664C0.0234375 10.832 0.0195312 10.8516 0.0195312 11.3281C0.0195312 11.8047 0.0234375 11.8242 0.152344 12.0898C0.324219 12.4375 0.644531 12.7617 0.964844 12.9141L1.20703 13.0273L1.21875 14.3164C1.23438 15.5898 1.23438 15.6094 1.33984 15.957C1.63281 16.918 2.21094 17.7148 3.00781 18.2578C3.125 18.3398 3.23047 18.4141 3.23828 18.4219C3.25 18.4336 3.09375 18.6055 2.89062 18.8086L2.51953 19.1797L2.92969 19.5898C3.15625 19.8164 3.35547 20 3.37891 20C3.39844 20 3.65625 19.7617 3.94531 19.4727L4.47656 18.9414H10H15.5234L16.0547 19.4727C16.3438 19.7617 16.6016 20 16.6211 20C16.6445 20 16.8438 19.8164 17.0703 19.5898L17.4805 19.1797L17.1094 18.8086C16.9062 18.6055 16.75 18.4336 16.7617 18.4219C16.7695 18.4141 16.875 18.3398 16.9922 18.2578C17.7891 17.7148 18.3672 16.918 18.6602 15.957C18.7656 15.6094 18.7656 15.5898 18.7812 14.3164L18.793 13.0273L19.0352 12.9141C19.3555 12.7617 19.6758 12.4375 19.8477 12.0898C19.9766 11.8242 19.9805 11.8047 19.9805 11.3281C19.9805 10.8516 19.9766 10.832 19.8477 10.5664C19.6719 10.207 19.3633 9.89844 19.0039 9.72266L18.7305 9.58984L17.5508 9.57812L16.375 9.56641L16.2656 9.34375C16.1172 9.03906 15.7852 8.71484 15.4492 8.55078L15.1758 8.41797H13.5156H11.8555L11.582 8.55078C11.2461 8.71484 10.9141 9.03906 10.7656 9.34375L10.6562 9.57031H6.51953H2.38281V6.29688C2.38281 4.42969 2.40234 2.90234 2.42188 2.73828C2.52734 1.93359 3.14453 1.31641 3.94922 1.21094C4.32031 1.16406 5.12891 1.16406 5.50781 1.21094C5.91797 1.26562 6.30078 1.45703 6.5625 1.74219C6.73828 1.9375 6.95312 2.28125 6.95312 2.375C6.95312 2.39062 6.83594 2.44531 6.69141 2.49219C6.27734 2.625 5.95312 2.83594 5.56641 3.22266C4.96484 3.82031 4.72656 4.42969 4.72656 5.35938V5.85938H7.66016H10.5938L10.5781 5.26172C10.5625 4.75391 10.543 4.62109 10.457 4.35547C10.3086 3.90234 10.1016 3.57812 9.72656 3.20312C9.33984 2.81641 9.01562 2.61328 8.55078 2.47266L8.21875 2.36719L8.11328 2.03516C7.97266 1.57031 7.76953 1.24609 7.38281 0.859375C7.00781 0.484375 6.6875 0.28125 6.23047 0.128906C5.92188 0.0234375 5.89844 0.0234375 4.80469 0.0117188C3.83594 0.00390625 3.65625 0.0117188 3.40625 0.0742188ZM8.37109 3.69922C8.69922 3.85547 9.01562 4.14844 9.17578 4.45312L9.30078 4.6875H7.65625H6.01562L6.11719 4.48828C6.24219 4.23438 6.52344 3.92969 6.75781 3.79688C7.08984 3.60156 7.28906 3.55078 7.71484 3.56641C8.05859 3.57422 8.13672 3.58984 8.37109 3.69922ZM14.9531 9.66797C15.0234 9.71094 15.1211 9.80859 15.168 9.88281C15.25 10.0156 15.2539 10.0547 15.2656 11.5508L15.2773 13.0859H13.5156H11.7539L11.7656 11.5508C11.7773 10.0508 11.7773 10.0156 11.8633 9.88281C11.957 9.73047 12.0703 9.64844 12.2461 9.60547C12.3125 9.58984 12.918 9.57812 13.5938 9.58203C14.7461 9.58984 14.832 9.59375 14.9531 9.66797ZM10.5859 11.3281V11.9141L6.10547 11.9062C1.69922 11.8945 1.61719 11.8945 1.49219 11.8164C1.04688 11.5469 1.14844 10.8984 1.65625 10.7773C1.72266 10.7617 3.75781 10.75 6.18359 10.7461L10.5859 10.7422V11.3281ZM18.5156 10.8477C18.6953 10.957 18.7891 11.125 18.7891 11.3281C18.7891 11.5312 18.6953 11.6992 18.5156 11.8086C18.3867 11.8906 18.3242 11.8945 17.4141 11.9062L16.4453 11.9219V11.3281V10.7344L17.4141 10.75C18.3242 10.7617 18.3867 10.7656 18.5156 10.8477ZM10.5859 13.6719V14.2578H13.5156H16.4453V13.6719V13.0859H17.0352H17.6289L17.6055 14.168C17.582 15.3828 17.5547 15.5508 17.3086 16.0703C17.0273 16.6719 16.5156 17.1836 15.9141 17.4648C15.2617 17.7734 15.668 17.7539 10 17.7539C4.29297 17.7539 4.72656 17.7773 4.04297 17.4414C3.44531 17.1523 3.00391 16.707 2.71484 16.1133C2.44531 15.5625 2.41797 15.4062 2.39453 14.168L2.37109 13.0859H6.48047H10.5859V13.6719Z" fill="#898989"/>
</g>
<defs>
<clipPath id="clip0_112_688">
<rect width="20" height="20" fill="white"/>
</clipPath>
</defs>
</svg>
