<svg width="24" height="24" viewBox="0 0 24 24" fill="none" xmlns="http://www.w3.org/2000/svg">
<g clip-path="url(#clip0_119_34)">
<path d="M4.0875 0.0890636C3.9 0.135939 3.5625 0.267189 3.3375 0.375002C3 0.543751 2.85 0.656252 2.47969 1.02656C2.09063 1.42031 2.00156 1.5375 1.81406 1.92188C1.43438 2.71875 1.45312 2.44219 1.45312 7.27031V11.5547L1.1625 11.6906C0.773438 11.8734 0.389063 12.2578 0.182813 12.6797C0.028125 12.9984 0.0234375 13.0219 0.0234375 13.5938C0.0234375 14.1656 0.028125 14.1891 0.182813 14.5078C0.389063 14.925 0.773438 15.3141 1.15781 15.4969L1.44844 15.6328L1.4625 17.1797C1.48125 18.7078 1.48125 18.7313 1.60781 19.1484C1.95938 20.3016 2.65313 21.2578 3.60938 21.9094C3.75 22.0078 3.87656 22.0969 3.88594 22.1063C3.9 22.1203 3.7125 22.3266 3.46875 22.5703L3.02344 23.0156L3.51563 23.5078C3.7875 23.7797 4.02656 24 4.05469 24C4.07812 24 4.3875 23.7141 4.73438 23.3672L5.37188 22.7297H12H18.6281L19.2656 23.3672C19.6125 23.7141 19.9219 24 19.9453 24C19.9734 24 20.2125 23.7797 20.4844 23.5078L20.9766 23.0156L20.5312 22.5703C20.2875 22.3266 20.1 22.1203 20.1141 22.1063C20.1234 22.0969 20.25 22.0078 20.3906 21.9094C21.3469 21.2578 22.0406 20.3016 22.3922 19.1484C22.5188 18.7313 22.5188 18.7078 22.5375 17.1797L22.5516 15.6328L22.8422 15.4969C23.2266 15.3141 23.6109 14.925 23.8172 14.5078C23.9719 14.1891 23.9766 14.1656 23.9766 13.5938C23.9766 13.0219 23.9719 12.9984 23.8172 12.6797C23.6063 12.2484 23.2359 11.8781 22.8047 11.6672L22.4766 11.5078L21.0609 11.4938L19.65 11.4797L19.5188 11.2125C19.3406 10.8469 18.9422 10.4578 18.5391 10.2609L18.2109 10.1016H16.2188H14.2266L13.8984 10.2609C13.4953 10.4578 13.0969 10.8469 12.9188 11.2125L12.7875 11.4844H7.82344H2.85938V7.55625C2.85938 5.31563 2.88281 3.48281 2.90625 3.28594C3.03281 2.32031 3.77344 1.57969 4.73906 1.45313C5.18438 1.39688 6.15469 1.39688 6.60938 1.45313C7.10156 1.51875 7.56094 1.74844 7.875 2.09063C8.08594 2.325 8.34375 2.7375 8.34375 2.85C8.34375 2.86875 8.20312 2.93438 8.02969 2.99063C7.53281 3.15 7.14375 3.40313 6.67969 3.86719C5.95781 4.58438 5.67188 5.31563 5.67188 6.43125V7.03125H9.19219H12.7125L12.6938 6.31406C12.675 5.70469 12.6516 5.54531 12.5484 5.22656C12.3703 4.68281 12.1219 4.29375 11.6719 3.84375C11.2078 3.37969 10.8188 3.13594 10.2609 2.96719L9.8625 2.84063L9.73594 2.44219C9.56719 1.88438 9.32344 1.49531 8.85938 1.03125C8.40938 0.581251 8.025 0.337502 7.47656 0.15469C7.10625 0.0281258 7.07813 0.0281258 5.76562 0.0140648C4.60313 0.00468826 4.3875 0.0140648 4.0875 0.0890636ZM10.0453 4.43906C10.4391 4.62656 10.8188 4.97813 11.0109 5.34375L11.1609 5.625H9.1875H7.21875L7.34063 5.38594C7.49063 5.08125 7.82813 4.71563 8.10938 4.55625C8.50781 4.32188 8.74688 4.26094 9.25781 4.27969C9.67031 4.28906 9.76406 4.30781 10.0453 4.43906ZM17.9438 11.6016C18.0281 11.6531 18.1453 11.7703 18.2016 11.8594C18.3 12.0188 18.3047 12.0656 18.3188 13.8609L18.3328 15.7031H16.2188H14.1047L14.1188 13.8609C14.1328 12.0609 14.1328 12.0188 14.2359 11.8594C14.3484 11.6766 14.4844 11.5781 14.6953 11.5266C14.775 11.5078 15.5016 11.4938 16.3125 11.4984C17.6953 11.5078 17.7984 11.5125 17.9438 11.6016ZM12.7031 13.5938V14.2969L7.32656 14.2875C2.03906 14.2734 1.94063 14.2734 1.79063 14.1797C1.25625 13.8563 1.37813 13.0781 1.9875 12.9328C2.06719 12.9141 4.50938 12.9 7.42031 12.8953L12.7031 12.8906V13.5938ZM22.2188 13.0172C22.4344 13.1484 22.5469 13.35 22.5469 13.5938C22.5469 13.8375 22.4344 14.0391 22.2188 14.1703C22.0641 14.2688 21.9891 14.2734 20.8969 14.2875L19.7344 14.3063V13.5938V12.8813L20.8969 12.9C21.9891 12.9141 22.0641 12.9188 22.2188 13.0172ZM12.7031 16.4063V17.1094H16.2188H19.7344V16.4063V15.7031H20.4422H21.1547L21.1266 17.0016C21.0984 18.4594 21.0656 18.6609 20.7703 19.2844C20.4328 20.0063 19.8188 20.6203 19.0969 20.9578C18.3141 21.3281 18.8016 21.3047 12 21.3047C5.15156 21.3047 5.67188 21.3328 4.85156 20.9297C4.13438 20.5828 3.60469 20.0484 3.25781 19.3359C2.93438 18.675 2.90156 18.4875 2.87344 17.0016L2.84531 15.7031H7.77656H12.7031V16.4063Z" fill="#898989"/>
</g>
<defs>
<clipPath id="clip0_119_34">
<rect width="24" height="24" fill="white"/>
</clipPath>
</defs>
</svg>
