<svg width="24" height="24" viewBox="0 0 24 24" fill="none" xmlns="http://www.w3.org/2000/svg">
<g clip-path="url(#clip0_119_29)">
<path d="M4.24199 2.20784C3.5998 2.30159 2.84512 2.83596 2.54043 3.41253C2.25449 3.95159 2.2498 3.99378 2.2498 6.89534L2.24512 9.53909L2.03418 9.69846C1.74824 9.91409 1.42012 10.3875 1.28887 10.7719C1.21855 10.9688 1.16699 11.2641 1.14824 11.5594L1.11543 12.0328L0.937305 12.0891C0.698242 12.1594 0.332617 12.4969 0.163867 12.8063L0.0232422 13.0547L0.00917969 16.1625L-0.00488281 19.2703L0.116992 19.5422C0.32793 20.0063 0.782617 20.3719 1.27012 20.461L1.44355 20.4938L1.4623 20.9016C1.48574 21.3703 1.5748 21.5766 1.82793 21.7219C2.04355 21.8485 2.37168 21.8438 2.5873 21.7125C2.83105 21.5625 2.90605 21.3657 2.90605 20.8875V20.4844H11.9998H21.0936V20.8875C21.0936 21.3657 21.1686 21.5625 21.4123 21.7125C21.6279 21.8438 21.9561 21.8485 22.1717 21.7219C22.4248 21.5766 22.5139 21.3703 22.5373 20.9016L22.5561 20.4938L22.7295 20.461C23.217 20.3719 23.6717 20.0063 23.8826 19.5422L24.0045 19.2703L23.9904 16.1625L23.9764 13.0547L23.8357 12.8063C23.667 12.4969 23.3014 12.1594 23.0623 12.0891L22.8842 12.0328L22.8514 11.5594C22.8326 11.3016 22.7764 10.9594 22.7248 10.8047C22.5982 10.425 22.2607 9.93284 21.9842 9.71721L21.7545 9.53909L21.7498 6.89534C21.7498 3.98909 21.7451 3.95159 21.4592 3.40784C21.2811 3.07971 20.7795 2.59221 20.4561 2.44221C19.8701 2.16096 20.5076 2.17972 12.1639 2.17503C7.96387 2.17034 4.39668 2.1844 4.24199 2.20784ZM19.6217 3.67971C19.7576 3.71721 19.9123 3.81096 20.0014 3.90003C20.3014 4.2094 20.2967 4.16253 20.2967 6.77346V9.14065H19.8561H19.4154L19.3967 8.30628L19.3826 7.47659L19.2232 7.18128C18.9842 6.74534 18.6373 6.48284 18.1498 6.37971C17.8076 6.3094 14.0623 6.3094 13.7248 6.37971C13.2279 6.48753 12.8295 6.7969 12.6092 7.24221C12.5014 7.45784 12.492 7.53753 12.4779 8.30628L12.4592 9.14065H11.9998H11.5404L11.5217 8.30628C11.5076 7.53753 11.4982 7.45784 11.3904 7.24221C11.2545 6.96565 10.9545 6.65159 10.7014 6.52503C10.3545 6.3469 10.092 6.32815 8.0623 6.32815C6.03262 6.32815 5.77012 6.3469 5.42324 6.52503C5.17012 6.65159 4.87012 6.96565 4.73418 7.24221C4.62637 7.45784 4.61699 7.53753 4.60293 8.30628L4.58418 9.14065H4.14355H3.70293V6.7594C3.70293 4.5469 3.7123 4.36878 3.79199 4.19534C3.90918 3.94221 4.11543 3.7594 4.36387 3.67971C4.68262 3.58128 19.2842 3.58128 19.6217 3.67971ZM10.0264 7.8469C10.0639 7.88909 10.0779 8.1094 10.0686 8.51253L10.0545 9.11721H8.0623H6.07012L6.05605 8.51253C6.04668 8.1094 6.06074 7.88909 6.09824 7.8469C6.17793 7.74846 9.94668 7.74846 10.0264 7.8469ZM17.9014 7.8469C17.9389 7.88909 17.9529 8.1094 17.9436 8.51253L17.9295 9.11721H15.9373H13.9451L13.9311 8.48909C13.9217 8.01565 13.9357 7.85159 13.9779 7.81878C14.0107 7.80003 14.8967 7.78128 15.942 7.78128C17.5123 7.78128 17.8592 7.79065 17.9014 7.8469ZM20.8357 10.6969C21.1967 10.8938 21.3607 11.1703 21.4076 11.6532L21.4357 11.9532H12.0045H2.57793V11.775C2.58262 11.2078 2.85918 10.7766 3.30918 10.6407C3.38418 10.6172 7.32637 10.6032 12.0701 10.6078C20.0014 10.6172 20.7045 10.6219 20.8357 10.6969ZM22.5467 13.4953C22.5748 13.5563 22.5936 14.4938 22.5936 16.2188C22.5936 17.9438 22.5748 18.8813 22.5467 18.9422C22.4951 19.0313 22.3311 19.0313 11.9998 19.0313C1.66855 19.0313 1.50449 19.0313 1.45293 18.9422C1.3873 18.8157 1.3873 13.6219 1.45293 13.4953C1.50449 13.4063 1.66855 13.4063 11.9998 13.4063C22.3311 13.4063 22.4951 13.4063 22.5467 13.4953Z" fill="#898989"/>
</g>
<defs>
<clipPath id="clip0_119_29">
<rect width="24" height="24" fill="white"/>
</clipPath>
</defs>
</svg>
