<svg width="20" height="20" viewBox="0 0 20 20" fill="none" xmlns="http://www.w3.org/2000/svg">
<g clip-path="url(#clip0_104_264)">
<path d="M3.53516 1.83985C3 1.91797 2.37109 2.36328 2.11719 2.84375C1.87891 3.29297 1.875 3.32813 1.875 5.74609L1.87109 7.94922L1.69531 8.08203C1.45703 8.26172 1.18359 8.65625 1.07422 8.97656C1.01562 9.14063 0.972656 9.38672 0.957031 9.63281L0.929688 10.0273L0.78125 10.0742C0.582031 10.1328 0.277344 10.4141 0.136719 10.6719L0.0195312 10.8789L0.0078125 13.4688L-0.00390625 16.0586L0.0976562 16.2852C0.273438 16.6719 0.652344 16.9766 1.05859 17.0508L1.20312 17.0781L1.21875 17.418C1.23828 17.8086 1.3125 17.9805 1.52344 18.1016C1.70312 18.207 1.97656 18.2031 2.15625 18.0938C2.35938 17.9688 2.42188 17.8047 2.42188 17.4063V17.0703H10H17.5781V17.4063C17.5781 17.8047 17.6406 17.9688 17.8438 18.0938C18.0234 18.2031 18.2969 18.207 18.4766 18.1016C18.6875 17.9805 18.7617 17.8086 18.7812 17.418L18.7969 17.0781L18.9414 17.0508C19.3477 16.9766 19.7266 16.6719 19.9023 16.2852L20.0039 16.0586L19.9922 13.4688L19.9805 10.8789L19.8633 10.6719C19.7227 10.4141 19.418 10.1328 19.2188 10.0742L19.0703 10.0273L19.043 9.63281C19.0273 9.41797 18.9805 9.13281 18.9375 9.00391C18.832 8.6875 18.5508 8.27734 18.3203 8.09766L18.1289 7.94922L18.125 5.74609C18.125 3.32422 18.1211 3.29297 17.8828 2.83984C17.7344 2.56641 17.3164 2.16016 17.0469 2.03516C16.5586 1.80078 17.0898 1.81641 10.1367 1.8125C6.63672 1.8086 3.66406 1.82031 3.53516 1.83985ZM16.3516 3.06641C16.4648 3.09766 16.5938 3.17578 16.668 3.25C16.918 3.50781 16.9141 3.46875 16.9141 5.64453V7.61719H16.5469H16.1797L16.1641 6.92188L16.1523 6.23047L16.0195 5.98438C15.8203 5.62109 15.5312 5.40234 15.125 5.31641C14.8398 5.25781 11.7188 5.25781 11.4375 5.31641C11.0234 5.40625 10.6914 5.66406 10.5078 6.03516C10.418 6.21484 10.4102 6.28125 10.3984 6.92188L10.3828 7.61719H10H9.61719L9.60156 6.92188C9.58984 6.28125 9.58203 6.21484 9.49219 6.03516C9.37891 5.80469 9.12891 5.54297 8.91797 5.4375C8.62891 5.28906 8.41016 5.27344 6.71875 5.27344C5.02734 5.27344 4.80859 5.28906 4.51953 5.4375C4.30859 5.54297 4.05859 5.80469 3.94531 6.03516C3.85547 6.21484 3.84766 6.28125 3.83594 6.92188L3.82031 7.61719H3.45312H3.08594V5.63281C3.08594 3.78906 3.09375 3.64063 3.16016 3.49609C3.25781 3.28516 3.42969 3.13281 3.63672 3.06641C3.90234 2.98438 16.0703 2.98438 16.3516 3.06641ZM8.35547 6.53906C8.38672 6.57422 8.39844 6.75781 8.39062 7.09375L8.37891 7.59766H6.71875H5.05859L5.04688 7.09375C5.03906 6.75781 5.05078 6.57422 5.08203 6.53906C5.14844 6.45703 8.28906 6.45703 8.35547 6.53906ZM14.918 6.53906C14.9492 6.57422 14.9609 6.75781 14.9531 7.09375L14.9414 7.59766H13.2812H11.6211L11.6094 7.07422C11.6016 6.67969 11.6133 6.54297 11.6484 6.51563C11.6758 6.5 12.4141 6.48438 13.2852 6.48438C14.5938 6.48438 14.8828 6.49219 14.918 6.53906ZM17.3633 8.91406C17.6641 9.07813 17.8008 9.30859 17.8398 9.71094L17.8633 9.96094H10.0039H2.14844V9.8125C2.15234 9.33984 2.38281 8.98047 2.75781 8.86719C2.82031 8.84766 6.10547 8.83594 10.0586 8.83984C16.668 8.84766 17.2539 8.85156 17.3633 8.91406ZM18.7891 11.2461C18.8125 11.2969 18.8281 12.0781 18.8281 13.5156C18.8281 14.9531 18.8125 15.7344 18.7891 15.7852C18.7461 15.8594 18.6094 15.8594 10 15.8594C1.39062 15.8594 1.25391 15.8594 1.21094 15.7852C1.15625 15.6797 1.15625 11.3516 1.21094 11.2461C1.25391 11.1719 1.39062 11.1719 10 11.1719C18.6094 11.1719 18.7461 11.1719 18.7891 11.2461Z" fill="#898989"/>
</g>
<defs>
<clipPath id="clip0_104_264">
<rect width="20" height="20" fill="white"/>
</clipPath>
</defs>
</svg>
