<svg width="20" height="20" viewBox="0 0 20 20" fill="none" xmlns="http://www.w3.org/2000/svg">
<path d="M17.6172 14.6104C16.9969 13.9854 15.4945 13.0733 14.7656 12.7057C13.8164 12.2276 13.7383 12.1885 12.9922 12.7428C12.4945 13.1127 12.1637 13.4432 11.5812 13.319C10.9988 13.1948 9.73318 12.4944 8.62498 11.3897C7.51678 10.285 6.77576 8.98265 6.65115 8.40218C6.52654 7.82171 6.86248 7.49476 7.22889 6.99593C7.74529 6.2928 7.70623 6.17562 7.26482 5.2264C6.92068 4.48812 5.98201 2.99984 5.35467 2.38265C4.68357 1.71976 4.68357 1.83695 4.25115 2.01663C3.89909 2.16472 3.56135 2.34477 3.24217 2.55452C2.61717 2.96976 2.27029 3.31468 2.02771 3.83304C1.78514 4.3514 1.67615 5.56663 2.92889 7.84241C4.18162 10.1182 5.06053 11.2819 6.87967 13.0959C8.69881 14.91 10.0976 15.8854 12.1426 17.0323C14.6722 18.4491 15.6426 18.1729 16.1625 17.9307C16.6824 17.6885 17.0289 17.3448 17.4449 16.7198C17.6552 16.4011 17.8356 16.0637 17.984 15.7119C18.164 15.2811 18.2812 15.2811 17.6172 14.6104Z" stroke="white" stroke-width="1.25" stroke-miterlimit="10"/>
</svg>
