<svg width="24" height="24" viewBox="0 0 24 24" fill="none" xmlns="http://www.w3.org/2000/svg">
<path d="M7.02656 3.98438C6.1125 4.20938 5.3625 4.73438 4.85625 5.50313C4.54688 5.96719 4.43438 6.23438 4.14844 7.17188C4.03125 7.57031 3.85781 8.1375 3.76875 8.42813L3.60469 8.95781L3.22031 8.94375L2.83594 8.92969V8.625V8.32031L3.14063 8.29688C3.51563 8.26406 3.64219 8.19844 3.73594 7.98281C3.82969 7.75313 3.78281 7.53281 3.60469 7.3875C3.47813 7.27969 3.42188 7.26563 3.08438 7.26563C2.57344 7.26563 2.36719 7.33594 2.1 7.59844C1.84219 7.85625 1.73438 8.15625 1.73438 8.625C1.73438 9.44531 2.14219 9.92813 2.8875 9.98438L3.225 10.0078L2.7375 10.5703C2.175 11.2172 1.93594 11.5969 1.74844 12.1219L1.61719 12.4922V14.5313V16.5703L1.74375 16.8094C1.81406 16.9406 1.99688 17.1656 2.15625 17.3063L2.4375 17.5641V18.2484C2.4375 18.8297 2.45156 18.975 2.53594 19.1953C2.65313 19.5094 2.97656 19.8563 3.30469 20.0156C3.53438 20.1328 3.55313 20.1328 4.80469 20.1328H6.07031L6.3375 20.0016C6.62813 19.8609 6.87656 19.6125 7.04063 19.3031C7.13438 19.125 7.14844 19.0219 7.1625 18.4078L7.18125 17.7188H12.0047H16.8281V18.3656C16.8281 18.9984 16.8328 19.0266 16.9688 19.3031C17.1328 19.6266 17.4 19.8891 17.7141 20.0344C17.9156 20.1281 18 20.1328 19.1953 20.1328C20.4469 20.1328 20.4656 20.1328 20.6953 20.0156C21.0234 19.8563 21.3469 19.5094 21.4641 19.1953C21.5484 18.975 21.5625 18.8297 21.5625 18.2484V17.5641L21.8438 17.3063C22.0031 17.1656 22.1859 16.9406 22.2563 16.8094L22.3828 16.5703L22.3969 14.7188C22.4109 12.7313 22.3922 12.4734 22.1859 11.9578C21.9984 11.4938 21.7922 11.1797 21.2625 10.5703L20.775 10.0078L21.1125 9.98438C21.8672 9.92813 22.2656 9.44531 22.2656 8.58281C22.2656 8.15625 22.1531 7.85156 21.9 7.59844C21.6328 7.33594 21.4266 7.26563 20.9156 7.26563C20.5781 7.26563 20.5219 7.27969 20.3953 7.3875C20.2172 7.53281 20.1703 7.75313 20.2641 7.98281C20.3578 8.19844 20.4844 8.26406 20.8594 8.29688L21.1641 8.32031V8.625V8.92969L20.7797 8.94375L20.3953 8.95781L20.2313 8.42813C20.1422 8.1375 19.9594 7.5375 19.8281 7.10156C19.6969 6.66094 19.5047 6.13594 19.4016 5.925C18.975 5.04844 18.2156 4.39219 17.2266 4.04531L16.8516 3.91406L12.1172 3.90469C7.62656 3.89531 7.36406 3.9 7.02656 3.98438ZM16.6828 4.99219C17.3953 5.16094 18.1125 5.71875 18.4266 6.35156C18.5156 6.53438 18.8531 7.52813 19.1719 8.56406L19.7531 10.4531L20.3531 11.1422C21.2906 12.2297 21.375 12.4406 21.375 13.7672V14.625H20.1797C18.8625 14.625 18.7688 14.6063 18.6328 14.3438C18.5297 14.1469 18.5344 13.3031 18.6375 13.1297C18.7828 12.8859 18.8531 12.8672 19.7484 12.8438L20.5875 12.8203L20.7234 12.6656C20.9156 12.45 20.9156 12.1453 20.7281 11.9531C20.55 11.7797 20.3156 11.7469 19.4578 11.7797C18.7125 11.8031 18.5109 11.8547 18.1547 12.1078C17.6672 12.4547 17.4609 13.0031 17.4938 13.875C17.5219 14.55 17.6297 14.8547 17.9484 15.1828C18.3984 15.6469 18.6516 15.7031 20.2031 15.7031H21.375V15.9703C21.375 16.1625 21.3469 16.2891 21.2812 16.3969C21.1031 16.6922 21.1313 16.6875 18.2578 16.6875H15.6563V15.7453C15.6563 15.1922 15.6375 14.7703 15.6094 14.7141C15.4828 14.4797 15.525 14.4844 11.9813 14.4844H8.67188L8.52188 14.6203L8.36719 14.7563L8.35313 15.7219L8.33906 16.6875L5.67188 16.6781L3.00938 16.6641L2.88281 16.5469C2.69531 16.3734 2.625 16.2047 2.625 15.9422V15.7078L3.95156 15.6938L5.27344 15.6797L5.56406 15.5438C5.90625 15.3891 6.23906 15.0609 6.38906 14.7281C6.48281 14.5313 6.49219 14.4281 6.49219 13.7344C6.49219 13.0078 6.4875 12.9469 6.375 12.7266C6.31406 12.5953 6.15469 12.3844 6.02344 12.2531C5.67656 11.9063 5.39531 11.8125 4.59375 11.7797C3.7875 11.7469 3.46875 11.7844 3.30938 11.9297C3.15 12.075 3.10781 12.3375 3.20625 12.5484C3.32344 12.8016 3.49219 12.8438 4.32188 12.8438C4.95938 12.8438 5.05781 12.8531 5.19375 12.9375C5.40469 13.0688 5.48438 13.2797 5.48438 13.7344C5.48438 14.1609 5.41406 14.3766 5.22656 14.5219C5.1 14.6203 5.05781 14.625 3.8625 14.625H2.625V13.8375C2.625 12.4969 2.75156 12.1781 3.67969 11.1141C4.00313 10.7484 4.26562 10.4391 4.26562 10.4297C4.26562 10.3266 5.45625 6.60469 5.55938 6.39844C5.74688 6.00469 6.34688 5.40469 6.75 5.2125C7.35938 4.91719 7.14844 4.92656 11.9766 4.92656C15.7453 4.92188 16.425 4.93125 16.6828 4.99219ZM14.625 16.1016V16.6875H12H9.375V16.1016V15.5156H12H14.625V16.1016ZM6.14062 18.2109C6.14062 18.7359 6.08438 18.9375 5.91094 19.0313C5.85469 19.0594 5.40938 19.0781 4.79531 19.0781C3.47344 19.0734 3.46875 19.0734 3.46875 18.2156V17.7188H4.80469H6.14062V18.2109ZM20.5312 18.2156C20.5312 19.0734 20.5266 19.0734 19.2047 19.0781C18.5906 19.0781 18.1453 19.0594 18.0891 19.0313C17.9156 18.9375 17.8594 18.7359 17.8594 18.2109V17.7188H19.1953H20.5312V18.2156Z" fill="#898989"/>
<path d="M5.62034 9.08906C5.39534 9.31875 5.44221 9.74531 5.71877 9.90469C5.84065 9.97969 6.3469 9.98438 12.0094 9.98438C17.7328 9.98438 18.1735 9.97969 18.2813 9.90469C18.4688 9.77344 18.511 9.69375 18.5157 9.45469C18.5157 9.2625 18.4922 9.20625 18.3797 9.08906L18.2438 8.95312H12H5.75627L5.62034 9.08906Z" fill="#898989"/>
<path d="M7.70625 11.8125C7.53281 11.8828 7.40625 12.089 7.40625 12.3047C7.40625 12.5531 7.5375 12.7312 7.77188 12.7969C8.01094 12.8625 15.9891 12.8625 16.2281 12.7969C16.6031 12.689 16.725 12.239 16.4578 11.9437L16.3219 11.789L12.0609 11.7797C9.72188 11.775 7.75781 11.789 7.70625 11.8125Z" fill="#898989"/>
</svg>
