<svg width="60" height="70" viewBox="0 0 60 70" fill="none" xmlns="http://www.w3.org/2000/svg">
<path d="M32.1465 0.328125C30.6699 0.943359 29.5352 2.1875 29.166 3.58203L28.9883 4.23828H27.6074C26.8145 4.23828 25.8848 4.32031 25.4199 4.44336C23.0273 5.07227 21.0859 7.01367 20.3477 9.50195C20.1426 10.2129 20.1152 10.8418 20.1426 14.2324C20.1699 17.7734 20.1426 18.1562 19.9375 18.334C19.8145 18.4434 19.5547 18.8262 19.3906 19.209C19.0898 19.8242 19.0625 20.084 19.0625 21.9434C19.0625 23.6523 19.1172 24.0898 19.3223 24.5547C19.9102 25.8398 21.3867 26.7832 23.0137 26.9062L23.916 26.9609L23.957 28.1094C24.0117 29.6543 24.3945 31.1172 25.1738 32.6758C25.707 33.7285 26.0625 34.207 27.0332 35.2051L28.2227 36.4355L28.1953 38.4043L28.1543 40.3594L23.4512 42.1094C20.8672 43.0664 18.543 43.9688 18.2832 44.1055C17.5176 44.5156 16.7656 45.377 13.7305 49.3418L10.8594 53.0742V51.0508C10.8594 48.918 10.6953 48.1934 10.1348 47.7285C9.92969 47.5645 9.90234 47.2227 9.90234 45.2676C9.90234 42.6836 9.75195 41.9316 9.08203 41.125C7.74219 39.5117 5.02148 39.7305 3.92773 41.5625L3.47656 42.3008V44.4473V46.5938L2.83398 46.6895C1.69922 46.8535 1.04297 47.291 0.550781 48.1934C0.277344 48.7266 0.263672 48.8906 0.263672 54.0039C0.263672 59.1582 0.263672 59.2812 0.564453 59.8281C0.878906 60.4297 1.64453 61.168 2.0957 61.3184C2.3418 61.3867 2.36914 61.5508 2.41016 63.8203C2.45117 66.2402 2.45117 66.2539 2.88867 67.1426C3.42188 68.2227 4.2832 69.0566 5.36328 69.5625C6.06055 69.8906 6.30664 69.9316 7.64648 69.9316C9.02734 69.9316 9.20508 69.9043 9.875 69.5488C10.9414 68.9883 11.3379 68.5781 14.4141 64.8457L17.2168 61.4414L17.2852 65.4883C17.3398 68.6465 17.3945 69.6035 17.5449 69.7676C17.709 69.9863 19.3496 70 38.4766 70H59.2168L59.4766 69.7129C59.7227 69.4395 59.7363 69.1113 59.7773 63.7793L59.8184 58.1328L59.4902 57.75C59.0527 57.2441 58.2598 57.2168 57.877 57.6816C57.6309 57.9824 57.6172 58.3105 57.6172 62.9727V67.9492H54.4727H51.3418L51.3008 60.9219C51.2598 54.2363 51.2461 53.8809 51 53.6074C50.8086 53.4023 50.5762 53.3203 50.166 53.3203C49.4141 53.3203 49.1406 53.6211 49.1406 54.4551V55.0977H34.3066H19.4727V54.6328C19.4727 54.0039 19.2266 53.3477 18.9258 53.1836C18.502 52.9648 17.8457 53.0332 17.5586 53.3203C17.3125 53.5664 17.2852 53.7852 17.2852 55.7402L17.2715 57.9004L13.6074 62.3164C11.5977 64.7363 9.73828 66.8691 9.49219 67.0605C8.93164 67.4707 7.86523 67.8125 7.18164 67.8125C6.58008 67.8125 5.70508 67.416 5.29492 66.9785C4.69336 66.3086 4.57031 65.7617 4.57031 63.5742V61.5234H6.14258H7.71484V62.3301C7.71484 63.041 7.75586 63.1777 8.07031 63.4238C8.48047 63.752 8.78125 63.7793 9.25977 63.5605C9.73828 63.3418 9.90234 62.8906 9.90234 61.7969C9.90234 60.9492 9.94336 60.7852 10.3535 60.2246C10.7637 59.623 10.791 59.5137 10.832 58.1328L10.8867 56.6836L14.7012 51.7344C16.8066 49.0137 18.7207 46.6074 18.9668 46.3887C19.5 45.9238 28.9609 42.3145 29.2207 42.4785C29.3164 42.5332 30.5879 43.4766 32.0645 44.584C33.5273 45.6777 34.8535 46.6211 35.0176 46.6758C35.4824 46.8262 35.9062 46.5801 38.7637 44.4199L41.5254 42.3555L42.0859 42.5195C44.9707 43.3672 54.5273 46.4434 54.9512 46.6621C55.8125 47.0859 56.2227 47.4414 56.7285 48.1797C57.4121 49.1914 57.6172 50.1621 57.6172 52.4453C57.6172 54.6191 57.7129 54.8926 58.5332 55.043C58.9023 55.1113 59.0391 55.0566 59.4082 54.7012L59.832 54.2637L59.7773 51.8438C59.709 49.6699 59.668 49.3281 59.3535 48.4805C58.7383 46.8125 57.5625 45.4453 56.1133 44.707C55.8398 44.5703 52.8457 43.5859 49.4688 42.5195C46.0918 41.4531 43.125 40.5234 42.8926 40.4551L42.4414 40.3047V38.3633V36.4082L43.5078 35.3281C45.4492 33.332 46.4609 31.0352 46.6387 28.2188L46.7207 26.9609L47.623 26.9062C49.168 26.7969 50.5625 25.9355 51.2324 24.6914C51.5059 24.1855 51.5332 23.9258 51.5332 21.9434C51.5332 19.8242 51.5195 19.7285 51.1641 19.0449C50.959 18.6621 50.7266 18.3066 50.6445 18.252C50.5625 18.1973 50.5078 17.4727 50.5078 16.4609C50.5078 14.9434 50.4805 14.7383 50.2344 14.4922C50.0703 14.3281 49.7832 14.2188 49.4824 14.2188C48.6758 14.2188 48.457 14.5742 48.457 15.8594V16.9668L40.9102 16.9258C33.3906 16.8848 33.3496 16.8848 32.7754 16.584C32.0781 16.2148 31.4629 15.4629 31.2441 14.7793C31.1484 14.4238 31.0938 12.6465 31.0938 9.40625V4.56641L31.4766 3.81445C31.9414 2.89844 32.6523 2.37891 33.7598 2.17383C34.293 2.07812 35.9062 2.05078 38.4082 2.0918C41.5117 2.14648 42.373 2.20117 42.9883 2.39258C45.4902 3.17188 47.377 5.05859 48.1016 7.49219C48.2109 7.88867 48.3477 8.92773 48.4023 9.80273C48.4844 11.0742 48.5527 11.4434 48.7578 11.6484C49.0996 11.9902 49.8789 11.9766 50.248 11.6074C50.5215 11.334 50.5352 11.2109 50.4805 9.31055C50.4258 7.50586 50.3848 7.21875 50.002 6.20703C48.9766 3.45898 47.0762 1.55859 44.3281 0.505859L43.1934 0.0683594L38.0664 0.0410156L32.9395 0L32.1465 0.328125ZM28.9062 10.3359C28.9062 14.5879 28.8516 14.9844 28.1953 15.791C27.416 16.7344 26.9375 16.8711 24.4082 16.9258L22.1797 16.9805L22.2344 13.7129C22.3027 10.1035 22.3984 9.61133 23.3145 8.42188C24.3945 7.02734 25.666 6.43945 27.6484 6.42578H28.9062V10.3359ZM30.6426 17.7734C31.3945 18.4297 32.1738 18.8262 33.1309 19.0039C33.5547 19.0859 36.1523 19.1406 39.1875 19.1406H44.5059L44.4512 24.3633C44.3965 30.0508 44.4102 29.9961 43.5625 31.6777C42.7422 33.291 41.1426 34.6582 39.1602 35.4375C37.8613 35.957 36.8086 36.1348 35.1953 36.1211C32.4199 36.1074 30.2461 35.2461 28.4551 33.4824C27.6348 32.6621 27.293 32.1973 26.9375 31.4316C26.2129 29.8457 26.1719 29.4355 26.1719 24.0625V19.1406L26.5547 19.0723C27.9219 18.7852 28.8926 18.3066 29.5898 17.5684C29.7676 17.377 29.9316 17.2266 29.9727 17.2266C30 17.2266 30.3008 17.4727 30.6426 17.7734ZM23.9844 21.9434V24.7461H23.3008C22.5078 24.7461 21.9473 24.5 21.5371 23.9805C21.2773 23.6523 21.25 23.4336 21.25 21.9297C21.25 20.3164 21.2637 20.2344 21.6191 19.8242C22.0703 19.2773 22.3574 19.1543 23.2734 19.1543L23.9844 19.1406V21.9434ZM48.5527 19.4141C49.25 19.8379 49.4141 20.3027 49.4141 21.875C49.4141 22.7637 49.3457 23.4199 49.2227 23.7207C48.9492 24.377 48.293 24.7461 47.4043 24.7461H46.6797V21.9434V19.1406H47.4043C47.8691 19.1406 48.2656 19.2363 48.5527 19.4141ZM32.625 38.3359C34.6484 38.7461 37.7109 38.5547 39.4336 37.8848C39.8438 37.7344 40.1992 37.5977 40.2266 37.5977C40.2402 37.5977 40.2539 38.2539 40.2539 39.0605L40.2402 40.5371L37.793 42.3555C36.084 43.6406 35.291 44.1465 35.1543 44.0645C35.0449 44.0098 33.9375 43.1895 32.6797 42.2461L30.4102 40.5371V39.0742V37.6113L30.998 37.8711C31.3125 38.0078 32.0508 38.2266 32.625 38.3359ZM7.31836 42.5059C7.63281 42.752 7.64648 42.8613 7.6875 44.6934L7.74219 46.6211H6.70312H5.66406V44.707C5.66406 42.9707 5.69141 42.7656 5.9375 42.5195C6.2793 42.1777 6.9082 42.1641 7.31836 42.5059ZM8.31641 49.0957C8.61719 49.3418 8.67188 49.4785 8.67188 50.1211V50.8594H6.97656C5.37695 50.8594 5.24023 50.8867 4.89844 51.1875C4.39258 51.6113 4.36523 52.418 4.83008 52.7871C5.10352 53.0059 5.39062 53.0469 6.9082 53.0469H8.67188V54.0586V55.0703L6.89453 55.125C5.28125 55.166 5.10352 55.1934 4.81641 55.4668C4.39258 55.8906 4.40625 56.6836 4.83008 57.0254C5.10352 57.2441 5.39062 57.2852 6.9082 57.2852H8.67188V58.0645C8.67188 59.3359 8.67188 59.3359 5.58203 59.3359H2.94336L2.66992 58.9805C2.39648 58.625 2.38281 58.4609 2.38281 54.1953C2.38281 49.5879 2.42383 49.2324 2.98438 48.9727C3.14844 48.8906 4.29688 48.8223 5.60938 48.8223C7.7832 48.8086 7.97461 48.8359 8.31641 49.0957ZM49.1406 60.498V63.7109H40.0625H30.9707L30.6973 64.0664C30.5332 64.2715 30.4102 64.5723 30.4102 64.7363C30.4102 64.9004 30.5332 65.2012 30.6973 65.4062L30.9707 65.7617H40.0625H49.1406V66.8555V67.9492H34.3066H19.4727V66.8555V65.7617H23.5469C27.498 65.7617 27.6484 65.748 27.8809 65.4883C28.0312 65.3242 28.1406 64.9961 28.1406 64.7363C28.1406 64.4766 28.0312 64.1484 27.8809 63.9844C27.6484 63.7246 27.498 63.7109 23.5469 63.7109H19.4727V60.498V57.2852H34.3066H49.1406V60.498Z" fill="#00CCFF"/>
<path d="M30.2188 20.9316C29.877 21.1914 29.8633 21.2734 29.8633 22.4219C29.8633 23.5703 29.877 23.6523 30.2188 23.9121C30.6289 24.2402 30.9297 24.2676 31.4219 24.0488C31.832 23.8574 32.0508 23.2969 32.0508 22.4219C32.0508 21.5469 31.832 20.9863 31.4219 20.7949C30.9297 20.5762 30.6289 20.6035 30.2188 20.9316Z" fill="#00CCFF"/>
<path d="M39.1875 20.7813C38.75 20.959 38.586 21.5332 38.6406 22.6817C38.6817 23.5293 38.7363 23.7207 39.0098 23.9395C39.4199 24.2813 39.9942 24.2676 40.4453 23.9121C40.7735 23.6524 40.8008 23.5567 40.8008 22.4766C40.8008 21.4238 40.7735 21.2871 40.459 20.9863C40.1172 20.6309 39.7207 20.5762 39.1875 20.7813Z" fill="#00CCFF"/>
<path d="M31.9141 27.9864C31.3536 28.6973 31.7637 30.3106 32.7618 31.295C33.6778 32.211 35.168 32.5391 36.5352 32.129C37.8477 31.7325 38.9005 30.2969 38.9415 28.8887C38.9551 28.2598 38.9005 28.0958 38.627 27.877C38.2169 27.5489 37.4649 27.5352 37.1368 27.8633C36.9864 28.0137 36.836 28.3692 36.795 28.67C36.6719 29.3672 36.2481 29.9004 35.7012 30.0508C34.8673 30.2833 34.0196 29.6954 33.8692 28.8204C33.7462 28.0137 33.3634 27.6172 32.7344 27.6172C32.3243 27.6172 32.1466 27.6993 31.9141 27.9864Z" fill="#00CCFF"/>
<path d="M2.36916 17.0078C1.58986 17.2813 1.05666 17.7324 0.646505 18.4297L0.263692 19.0723L0.222677 25.8398C0.195333 29.5586 0.222677 32.9355 0.263692 33.3184C0.386739 34.3574 1.01565 35.2324 1.959 35.7109L2.71096 36.0938H7.72854H12.7461L13.4707 35.7109C14.5508 35.1504 14.961 34.4941 15.1387 33.0313L15.2891 31.8555H16.9981C19.1172 31.8555 19.3906 31.7461 19.4453 30.9258L19.4863 30.3379L17.3672 28.1777L15.2344 26.0313V23.1602C15.2344 21.5879 15.1797 19.9336 15.0977 19.4961C14.9336 18.498 14.4414 17.7461 13.6074 17.2539L12.9785 16.8848L7.91994 16.8574C4.00979 16.8301 2.75197 16.8574 2.36916 17.0078ZM12.5274 19.1953C12.9785 19.5371 13.0469 20.084 13.0469 23.5566V27.002L14.3731 28.3281L15.7129 29.668H14.6738C13.1836 29.668 13.0469 29.832 13.0469 31.5C13.0469 32.8809 12.8828 33.5645 12.5 33.7695C12.3496 33.8516 10.3946 33.9063 7.67385 33.9063C3.36721 33.9063 3.0801 33.8926 2.77932 33.6465L2.45119 33.3867V26.4551V19.5234L2.77932 19.2637C3.0801 19.0176 3.36721 19.0039 7.70119 19.0039C11.2559 19.0176 12.3496 19.0586 12.5274 19.1953Z" fill="#003399"/>
<path d="M8.50781 25.1152L6.62109 26.9883L5.82812 26.209C5.1582 25.5391 4.9668 25.4297 4.5293 25.4297C3.85938 25.4297 3.47656 25.8125 3.47656 26.4824C3.47656 26.9336 3.59961 27.1113 4.81641 28.3281C6.7168 30.2285 6.4707 30.2832 9.51953 27.248C11.8027 24.9785 11.9531 24.7871 11.9531 24.3223C11.9531 23.707 11.4609 23.2422 10.8184 23.2422C10.4629 23.2422 10.1074 23.5293 8.50781 25.1152Z" fill="#003399"/>
</svg>
