<svg width="24" height="24" viewBox="0 0 24 24" fill="none" xmlns="http://www.w3.org/2000/svg">
<g clip-path="url(#clip0_122_45)">
<path d="M10.6873 0.0515633C8.70918 0.295315 6.98418 1.70156 6.35137 3.58125C6.15449 4.17188 6.09355 4.59844 6.06074 5.63438L6.03262 6.60938L5.65293 5.9625C5.09043 5.02031 4.50449 4.17656 4.34043 4.07344C4.13418 3.94688 3.75918 3.95625 3.5623 4.0875C3.28105 4.27969 2.33887 5.74688 1.65918 7.05469C0.698242 8.90156 0.145117 10.6125 0.0513672 12.0375C-0.0142578 13.05 0.0982422 14.3719 0.351367 15.4453C0.674805 16.8188 1.36855 18.1875 2.07637 18.8344C2.3623 19.0922 2.82637 19.3922 3.05605 19.4625L3.23418 19.5141V21.0328V22.5469H1.88887C0.698242 22.5469 0.520117 22.5563 0.374805 22.6313C-0.131445 22.8844 -0.131445 23.6438 0.374805 23.9109C0.529492 23.9953 0.932617 24 11.9998 24C23.067 24 23.4701 23.9953 23.6248 23.9109C24.1311 23.6438 24.1311 22.8844 23.6248 22.6313C23.517 22.575 23.3529 22.5469 23.1467 22.5469H22.8279V19.4578V16.3641L22.9592 16.4344C23.2451 16.5844 23.6529 16.4672 23.8451 16.1766C23.9811 15.975 23.9904 15.6047 23.8686 15.3984C23.8217 15.3188 23.3154 14.8453 22.7436 14.3438L21.7076 13.4297L21.7029 11.6016C21.7029 10.4156 21.6842 9.70781 21.6514 9.58594C21.5811 9.32813 21.3326 9.10781 21.0795 9.07031C20.8217 9.02813 20.517 9.15 20.3764 9.34688C20.2779 9.4875 20.2732 9.53906 20.2498 10.8L20.2264 12.1078L18.4217 10.5047L16.617 8.90625L16.5936 6.66563L16.5654 4.42969L16.4389 3.96094C16.2654 3.31406 15.8389 2.475 15.417 1.95469C14.6764 1.03594 13.5889 0.375002 12.4451 0.135939C11.9295 0.0281258 11.1607 -0.00937271 10.6873 0.0515633ZM12.2295 1.575C12.6748 1.67813 13.4248 2.0625 13.7623 2.35313C14.3482 2.86406 14.7139 3.40313 14.9576 4.12031L15.117 4.57031L15.1311 6.08438L15.1451 7.59844L14.9904 7.5C14.7561 7.35938 14.4561 7.37344 14.1982 7.54219C14.0857 7.62188 13.5607 8.07188 13.0311 8.54531L12.0701 9.40781L12.0467 7.50469C12.0279 6.23906 12.0045 5.56406 11.967 5.48438C11.8545 5.23125 11.5826 5.0625 11.2873 5.0625C11.0436 5.0625 10.8139 5.19375 10.6873 5.4C10.6029 5.54531 10.5936 5.63906 10.5936 6.69844V7.84219L10.317 7.57969C10.0123 7.28906 9.87637 7.21875 9.62324 7.21875C9.26699 7.21875 8.96699 7.47656 8.92012 7.82344C8.87324 8.16563 8.96231 8.30156 9.80137 9.15938L10.5936 9.975V10.3453V10.7156L9.51074 11.6766C8.92012 12.2016 8.41387 12.6375 8.39043 12.6469C8.35293 12.6609 8.05293 12.2484 7.92637 12.0094C7.89356 11.9531 7.83731 11.7047 7.80449 11.4563C7.76699 11.2125 7.68262 10.7906 7.61699 10.5188L7.49512 10.0266L7.51387 7.39219C7.53262 4.425 7.53262 4.45313 7.89356 3.67969C8.23106 2.97188 8.63418 2.50781 9.29043 2.08125C10.1482 1.51875 11.2311 1.33125 12.2295 1.575ZM4.77637 7.40625C5.50293 8.7375 6.0373 10.0828 6.29043 11.2031C6.38418 11.6344 6.39824 11.8219 6.39824 12.6797C6.39824 13.2563 6.37012 13.8469 6.33262 14.1094L6.27168 14.5547L5.86856 14.9063C5.38574 15.3281 5.29668 15.4641 5.29668 15.7641C5.29668 16.0266 5.38574 16.2188 5.56387 16.35L5.69043 16.4438L5.60137 16.6453C5.43262 17.0156 5.08574 17.5031 4.79043 17.775C4.18574 18.3328 3.64199 18.3094 3.02793 17.7C1.82324 16.4906 1.15293 13.3313 1.64043 11.1563C1.87012 10.1438 2.16074 9.36563 2.76543 8.13281C3.01855 7.61719 3.38887 6.92344 3.58574 6.59531L3.95137 5.99063L4.15293 6.31406C4.26543 6.4875 4.54668 6.97969 4.77637 7.40625ZM18.0373 12.1172L21.3701 15.0703V18.8063L21.3748 22.5469H17.4373H13.4998V19.5328V16.5188L13.3967 16.3125C13.2045 15.9375 13.1904 15.9375 11.367 15.9375C9.56699 15.9375 9.54356 15.9422 9.34199 16.2938L9.23418 16.4766V19.5094V22.5469H8.55449H7.8748L7.87949 18.8063V15.0703L11.217 12.1078C13.0545 10.4766 14.5873 9.15 14.6295 9.15469C14.6717 9.15938 16.2045 10.4906 18.0373 12.1172ZM12.0467 19.9688V22.5469H11.367H10.6873V19.9688V17.3906H11.367H12.0467V19.9688ZM6.42168 20.3672V22.5469H5.55449H4.6873V21.0234C4.6873 19.9828 4.70137 19.5 4.73887 19.5C4.85137 19.5 5.37637 19.2 5.65293 18.9797C5.81699 18.8484 6.05137 18.6188 6.17324 18.4641C6.29043 18.3141 6.39824 18.1875 6.40293 18.1875C6.4123 18.1875 6.42168 19.1672 6.42168 20.3672Z" fill="#898989"/>
<path d="M15.3467 16.0032C15.267 16.0407 15.1498 16.1391 15.0889 16.2235L14.9764 16.3828L14.9623 18.3047C14.953 20.2219 14.953 20.2266 15.0561 20.4094C15.267 20.775 15.2436 20.7703 17.4233 20.7563C19.2889 20.7422 19.3545 20.7375 19.4858 20.6438C19.7811 20.4282 19.7811 20.4188 19.7811 18.3282C19.7811 16.5141 19.7764 16.425 19.6873 16.275C19.6358 16.1907 19.528 16.0828 19.4436 16.0313C19.2936 15.9422 19.2045 15.9375 17.3905 15.9375C15.8998 15.9422 15.4592 15.9563 15.3467 16.0032ZM18.328 18.3516V19.3125H17.367H16.4061V18.3516V17.3907H17.367H18.328V18.3516Z" fill="#898989"/>
<path d="M20.3109 0.0468726C18.8344 0.31406 17.7656 1.60312 17.7656 3.11718C17.7656 4.19531 18.2578 5.11875 19.1531 5.71406C19.6828 6.07031 20.1375 6.20156 20.8359 6.20625C21.3 6.21093 21.4594 6.19218 21.75 6.10312C22.2797 5.93906 22.6688 5.7 23.0672 5.30156C23.4656 4.89843 23.7656 4.38281 23.8828 3.88593C23.9719 3.49687 23.9719 2.72343 23.8828 2.36718C23.625 1.34531 22.8094 0.473435 21.8297 0.16406C21.3984 0.0281224 20.7141 -0.0234399 20.3109 0.0468726ZM21.5391 1.6125C22.0359 1.8375 22.4297 2.3625 22.4953 2.87343C22.5891 3.61406 22.2375 4.275 21.5719 4.60312C21.2953 4.73906 21.2156 4.75781 20.8594 4.75781C20.5266 4.75781 20.4188 4.73906 20.2031 4.63593C19.8375 4.4625 19.5891 4.22812 19.4016 3.88125C19.2516 3.6 19.2422 3.5625 19.2422 3.11718C19.2422 2.69531 19.2563 2.625 19.3734 2.4C19.6031 1.95937 20.0344 1.61719 20.5031 1.49531C20.7563 1.42969 21.2625 1.48593 21.5391 1.6125Z" fill="#898989"/>
</g>
<defs>
<clipPath id="clip0_122_45">
<rect width="24" height="24" fill="white"/>
</clipPath>
</defs>
</svg>
