<svg width="20" height="20" viewBox="0 0 20 20" fill="none" xmlns="http://www.w3.org/2000/svg">
<path fill-rule="evenodd" clip-rule="evenodd" d="M10 1.66748C11.9891 1.66748 13.8968 2.45766 15.3033 3.86418C16.7098 5.2707 17.5 7.17836 17.5 9.16748C17.5 11.7291 16.1033 13.8258 14.6317 15.33C13.8964 16.0734 13.0941 16.7473 12.235 17.3433L11.88 17.585L11.7133 17.6958L11.3992 17.8958L11.1192 18.0666L10.7725 18.2683C10.5372 18.4026 10.2709 18.4733 10 18.4733C9.72906 18.4733 9.4628 18.4026 9.2275 18.2683L8.88083 18.0666L8.4475 17.8L8.2875 17.6958L7.94583 17.4683C7.01903 16.8412 6.15575 16.1251 5.36833 15.33C3.89667 13.825 2.5 11.7291 2.5 9.16748C2.5 7.17836 3.29018 5.2707 4.6967 3.86418C6.10322 2.45766 8.01088 1.66748 10 1.66748ZM10 3.33415C8.4529 3.33415 6.96917 3.94873 5.87521 5.04269C4.78125 6.13665 4.16667 7.62038 4.16667 9.16748C4.16667 11.1025 5.22667 12.8008 6.55917 14.1641C7.13211 14.7441 7.75138 15.2765 8.41083 15.7558L8.7925 16.0275C8.91583 16.1136 9.03444 16.1936 9.14833 16.2675L9.47333 16.4758L9.75917 16.65L10 16.7908L10.3792 16.5666L10.685 16.375C10.8478 16.2716 11.0219 16.1558 11.2075 16.0275L11.5892 15.7558C12.2486 15.2765 12.8679 14.7441 13.4408 14.1641C14.7733 12.8016 15.8333 11.1025 15.8333 9.16748C15.8333 7.62038 15.2188 6.13665 14.1248 5.04269C13.0308 3.94873 11.5471 3.33415 10 3.33415ZM10 5.83415C10.8841 5.83415 11.7319 6.18534 12.357 6.81046C12.9821 7.43558 13.3333 8.28343 13.3333 9.16748C13.3333 10.0515 12.9821 10.8994 12.357 11.5245C11.7319 12.1496 10.8841 12.5008 10 12.5008C9.11594 12.5008 8.2681 12.1496 7.64298 11.5245C7.01786 10.8994 6.66667 10.0515 6.66667 9.16748C6.66667 8.28343 7.01786 7.43558 7.64298 6.81046C8.2681 6.18534 9.11594 5.83415 10 5.83415ZM10 7.50081C9.55797 7.50081 9.13405 7.67641 8.82149 7.98897C8.50893 8.30153 8.33333 8.72545 8.33333 9.16748C8.33333 9.60951 8.50893 10.0334 8.82149 10.346C9.13405 10.6586 9.55797 10.8341 10 10.8341C10.442 10.8341 10.866 10.6586 11.1785 10.346C11.4911 10.0334 11.6667 9.60951 11.6667 9.16748C11.6667 8.72545 11.4911 8.30153 11.1785 7.98897C10.866 7.67641 10.442 7.50081 10 7.50081Z" fill="white"/>
</svg>
