<svg width="20" height="20" viewBox="0 0 20 20" fill="none" xmlns="http://www.w3.org/2000/svg">
<g clip-path="url(#clip0_112_677)">
<path fill-rule="evenodd" clip-rule="evenodd" d="M5.53271 8.16369C5.53271 6.97889 6.00337 5.84262 6.84115 5.00485C7.67893 4.16707 8.81519 3.69641 9.99999 3.69641C11.1848 3.69641 12.3211 4.16707 13.1588 5.00485C13.9966 5.84262 14.4673 6.97889 14.4673 8.16369C14.4673 9.34848 13.9966 10.4847 13.1588 11.3225C12.3211 12.1603 11.1848 12.631 9.99999 12.631C8.81519 12.631 7.67893 12.1603 6.84115 11.3225C6.00337 10.4847 5.53271 9.34848 5.53271 8.16369ZM9.99999 5.10713C9.18934 5.10713 8.41189 5.42916 7.83868 6.00237C7.26546 6.57559 6.94343 7.35304 6.94343 8.16369C6.94343 8.97433 7.26546 9.75178 7.83868 10.325C8.41189 10.8982 9.18934 11.2202 9.99999 11.2202C10.8106 11.2202 11.5881 10.8982 12.1613 10.325C12.7345 9.75178 13.0565 8.97433 13.0565 8.16369C13.0565 7.35304 12.7345 6.57559 12.1613 6.00237C11.5881 5.42916 10.8106 5.10713 9.99999 5.10713Z" fill="#898989"/>
<path fill-rule="evenodd" clip-rule="evenodd" d="M2.02852 7.08867C2.1897 5.13903 3.07792 3.32123 4.51693 1.99598C5.95595 0.670726 7.84059 -0.0651231 9.79688 -0.0655518H10.2032C12.1595 -0.0651231 14.0441 0.670726 15.4831 1.99598C16.9221 3.32123 17.8103 5.13903 17.9715 7.08867C18.1508 9.26055 17.4798 11.4172 16.1 13.104L11.5923 18.6161C11.3993 18.852 11.1564 19.0421 10.8811 19.1726C10.6057 19.3032 10.3048 19.3709 10 19.3709C9.69528 19.3709 9.39435 19.3032 9.11899 19.1726C8.84362 19.0421 8.6007 18.852 8.40779 18.6161L3.90007 13.104C2.52024 11.4172 1.84923 9.26055 2.02852 7.08867ZM9.79688 1.34517C8.19488 1.34584 6.65165 1.94862 5.47331 3.03394C4.29497 4.11925 3.5676 5.60781 3.43548 7.20435C3.28621 9.01185 3.84459 10.8067 4.99291 12.2105L9.50063 17.7236C9.56122 17.7978 9.63755 17.8575 9.72408 17.8986C9.81061 17.9396 9.90519 17.9609 10.001 17.9609C10.0967 17.9609 10.1913 17.9396 10.2778 17.8986C10.3644 17.8575 10.4407 17.7978 10.5013 17.7236L15.009 12.2105C16.1567 10.8064 16.7144 9.0116 16.5646 7.20435C16.4324 5.60765 15.7049 4.11895 14.5264 3.03362C13.3478 1.94828 11.8044 1.34561 10.2022 1.34517H9.79688Z" fill="#898989"/>
</g>
<defs>
<clipPath id="clip0_112_677">
<rect width="20" height="20" fill="white"/>
</clipPath>
</defs>
</svg>
