<svg width="40" height="40" viewBox="0 0 40 40" fill="none" xmlns="http://www.w3.org/2000/svg">
<ellipse cx="20" cy="20" rx="20" ry="20" fill="#003399"/>
<path fill-rule="evenodd" clip-rule="evenodd" d="M19.0988 32.3585C19.0988 32.3585 10.2427 24.8999 10.2427 17.5609C10.2427 14.9734 11.2705 12.4919 13.1002 10.6623C14.9298 8.83268 17.4113 7.80481 19.9988 7.80481C22.5863 7.80481 25.0678 8.83268 26.8974 10.6623C28.727 12.4919 29.7549 14.9734 29.7549 17.5609C29.7549 24.8999 20.8988 32.3585 20.8988 32.3585C20.4061 32.8121 19.5951 32.8073 19.0988 32.3585ZM19.9988 21.8292C20.5593 21.8292 21.1143 21.7188 21.6322 21.5043C22.15 21.2898 22.6206 20.9754 23.0169 20.579C23.4133 20.1827 23.7277 19.7122 23.9422 19.1943C24.1567 18.6765 24.2671 18.1214 24.2671 17.5609C24.2671 17.0004 24.1567 16.4454 23.9422 15.9275C23.7277 15.4097 23.4133 14.9391 23.0169 14.5428C22.6206 14.1464 22.15 13.832 21.6322 13.6175C21.1143 13.403 20.5593 13.2926 19.9988 13.2926C18.8668 13.2926 17.7811 13.7423 16.9806 14.5428C16.1802 15.3432 15.7305 16.4289 15.7305 17.5609C15.7305 18.6929 16.1802 19.7786 16.9806 20.579C17.7811 21.3795 18.8668 21.8292 19.9988 21.8292Z" fill="white"/>
</svg>
