<svg width="16" height="16" viewBox="0 0 16 16" fill="none" xmlns="http://www.w3.org/2000/svg">
<path d="M7.35931 0.0343752C6.62182 0.175 6.09057 0.4 5.54057 0.80625C4.71244 1.42188 4.13119 2.3625 3.94994 3.375C3.88119 3.76562 3.88119 4.45312 3.94994 4.82812C4.13432 5.81875 4.64057 6.67188 5.43432 7.32187C5.49057 7.36875 5.53432 7.4125 5.52807 7.41875C5.52182 7.425 5.37494 7.49062 5.20619 7.5625C4.38744 7.92188 3.49682 8.58125 2.89057 9.2875C1.95307 10.3781 1.40307 11.6437 1.24994 13.0687C1.17182 13.8062 1.22807 14.275 1.45307 14.7344C1.74994 15.3469 2.26869 15.7719 2.91869 15.9375C3.16244 16 3.26557 16 7.99994 16C12.7343 16 12.8374 16 13.0812 15.9375C13.7312 15.7719 14.2499 15.3469 14.5468 14.7344C14.7718 14.275 14.8281 13.8062 14.7499 13.0687C14.5968 11.6437 14.0468 10.3781 13.1093 9.2875C12.5031 8.58125 11.6124 7.92188 10.7937 7.5625C10.6249 7.49062 10.4781 7.425 10.4718 7.41875C10.4656 7.4125 10.5093 7.36875 10.5656 7.32187C11.3593 6.67188 11.8656 5.81875 12.0499 4.82812C12.1187 4.45312 12.1187 3.76562 12.0499 3.375C11.7624 1.75313 10.5031 0.446875 8.87494 0.078125C8.59994 0.015625 7.60619 -0.0125008 7.35931 0.0343752ZM8.75932 1.35625C9.81244 1.66875 10.5843 2.50313 10.7999 3.5625C10.8749 3.94687 10.8468 4.54375 10.7343 4.90625C10.4906 5.68437 9.98119 6.28438 9.26556 6.64062C8.81557 6.86562 8.47807 6.94687 7.99994 6.94687C7.52182 6.94687 7.18432 6.86562 6.73432 6.64062C6.01869 6.28438 5.50932 5.68437 5.26557 4.90625C5.15307 4.54375 5.12494 3.94687 5.19994 3.5625C5.40932 2.52812 6.17807 1.67812 7.17807 1.375C7.52494 1.27187 7.67494 1.25313 8.09369 1.26562C8.39682 1.27187 8.54369 1.29375 8.75932 1.35625ZM8.87494 8.29688C10.4531 8.55312 11.8406 9.4875 12.7187 10.8906C13.0124 11.3625 13.2874 12.0656 13.4062 12.6531C13.4874 13.0625 13.5374 13.7125 13.4999 13.9125C13.4374 14.2281 13.2281 14.5063 12.9437 14.6469L12.7656 14.7344H7.99994H3.23432L3.05619 14.6469C2.77182 14.5063 2.56244 14.2281 2.49994 13.9125C2.46244 13.7125 2.51244 13.0625 2.59369 12.6531C3.00932 10.5875 4.59994 8.92188 6.65619 8.39687C6.91244 8.32812 7.14682 8.29063 7.62494 8.2375C7.82806 8.2125 8.57806 8.25 8.87494 8.29688Z" fill="#003399"/>
</svg>
