<svg width="40" height="40" viewBox="0 0 40 40" fill="none" xmlns="http://www.w3.org/2000/svg">
<ellipse cx="20" cy="20" rx="20" ry="20" fill="#003399"/>
<path d="M13.4381 18.5244C15.1942 21.9756 18.0234 24.7926 21.4747 26.5609L24.1576 23.878C24.4869 23.5487 24.9747 23.439 25.4015 23.5853C26.7673 24.0366 28.2429 24.2805 29.7551 24.2805C30.4259 24.2805 30.9747 24.8292 30.9747 25.5V29.7561C30.9747 30.4268 30.4259 30.9756 29.7551 30.9756C18.3039 30.9756 9.02344 21.6951 9.02344 10.2439C9.02344 9.57313 9.57222 9.02435 10.2429 9.02435H14.5112C15.182 9.02435 15.7308 9.57313 15.7308 10.2439C15.7308 11.7683 15.9747 13.2317 16.4259 14.5975C16.56 15.0244 16.4625 15.5 16.121 15.8414L13.4381 18.5244Z" fill="white"/>
</svg>
