<svg width="24" height="24" viewBox="0 0 24 24" fill="none" xmlns="http://www.w3.org/2000/svg">
<g clip-path="url(#clip0_119_23)">
<path fill-rule="evenodd" clip-rule="evenodd" d="M6.63916 9.7964C6.63916 8.37464 7.20395 7.01112 8.20928 6.00579C9.21461 5.00046 10.5781 4.43567 11.9999 4.43567C13.4216 4.43567 14.7852 5.00046 15.7905 6.00579C16.7958 7.01112 17.3606 8.37464 17.3606 9.7964C17.3606 11.2182 16.7958 12.5817 15.7905 13.587C14.7852 14.5923 13.4216 15.1571 11.9999 15.1571C10.5781 15.1571 9.21461 14.5923 8.20928 13.587C7.20395 12.5817 6.63916 11.2182 6.63916 9.7964ZM11.9999 6.12853C11.0271 6.12853 10.0942 6.51497 9.40632 7.20282C8.71846 7.89068 8.33202 8.82362 8.33202 9.7964C8.33202 10.7692 8.71846 11.7021 9.40632 12.39C10.0942 13.0778 11.0271 13.4643 11.9999 13.4643C12.9727 13.4643 13.9056 13.0778 14.5935 12.39C15.2813 11.7021 15.6678 10.7692 15.6678 9.7964C15.6678 8.82362 15.2813 7.89068 14.5935 7.20282C13.9056 6.51497 12.9727 6.12853 11.9999 6.12853Z" fill="#898989"/>
<path fill-rule="evenodd" clip-rule="evenodd" d="M2.43413 8.50639C2.62754 6.16683 3.6934 3.98547 5.42022 2.39516C7.14704 0.804859 9.40861 -0.0781599 11.7562 -0.0786743H12.2437C14.5912 -0.0781599 16.8528 0.804859 18.5796 2.39516C20.3064 3.98547 21.3723 6.16683 21.5657 8.50639C21.7809 11.1126 20.9757 13.7006 19.3199 15.7248L13.9106 22.3393C13.6791 22.6224 13.3876 22.8505 13.0572 23.0072C12.7267 23.1638 12.3656 23.2451 11.9999 23.2451C11.6342 23.2451 11.2731 23.1638 10.9427 23.0072C10.6122 22.8505 10.3207 22.6224 10.0892 22.3393L4.67999 15.7248C3.02418 13.7006 2.21898 11.1126 2.43413 8.50639ZM11.7562 1.61419C9.83376 1.615 7.98189 2.33833 6.56788 3.64071C5.15387 4.94309 4.28102 6.72936 4.12247 8.64521C3.94335 10.8142 4.61341 12.968 5.99139 14.6526L11.4007 21.2683C11.4734 21.3573 11.565 21.429 11.6688 21.4783C11.7726 21.5275 11.8861 21.5531 12.0011 21.5531C12.116 21.5531 12.2295 21.5275 12.3333 21.4783C12.4371 21.429 12.5287 21.3573 12.6015 21.2683L18.0107 14.6526C19.3879 12.9677 20.0571 10.8139 19.8774 8.64521C19.7188 6.72917 18.8458 4.94273 17.4316 3.64033C16.0173 2.33792 14.1652 1.61472 12.2426 1.61419H11.7562Z" fill="#898989"/>
</g>
<defs>
<clipPath id="clip0_119_23">
<rect width="24" height="24" fill="white"/>
</clipPath>
</defs>
</svg>
