<svg width="70" height="70" viewBox="0 0 70 70" fill="none" xmlns="http://www.w3.org/2000/svg">
<g clip-path="url(#clip0_8_108)">
<path d="M13.9453 0.259774C13.2207 0.45118 13.0566 0.546884 13.084 0.765634C13.0977 0.970712 15.3125 9.81641 15.3672 9.93946C15.3945 9.96681 17.6777 9.40626 17.7461 9.36524C17.7598 9.35157 17.2402 7.23243 16.584 4.66212C15.2441 -0.615226 15.5176 -0.150382 13.9453 0.259774Z" fill="#003399"/>
<path d="M48.3301 0.574219C48.002 0.861328 47.9473 1.09375 47.5918 3.41797C47.209 6.0293 47.0449 6.52148 46.5254 6.64453C45.8281 6.82227 45.5547 6.58984 44.0098 4.53906C42.4922 2.51562 42.1641 2.20117 41.5899 2.1875C41.1524 2.1875 40.8926 2.33789 39.0742 3.71875L37.4746 4.92188L34.836 4.96289C32.7715 5.00391 31.8828 5.08594 30.7617 5.31836C25.9356 6.34375 21.6973 8.77734 18.5801 12.3457C15.4903 15.873 13.4942 20.4531 13.166 24.7734L13.084 25.8398H12.6465C11.9082 25.8398 11.6758 26.2363 11.2246 28.4238C10.9922 29.5039 10.8008 30.4062 10.8008 30.4336C10.8008 30.4609 10.0488 29.9551 9.13283 29.3262C6.74025 27.6582 6.90431 27.6172 4.34767 30.1875C1.79103 32.7305 1.83205 32.5664 3.41799 34.9316C4.01955 35.8203 4.48439 36.5723 4.44338 36.6133C4.41603 36.6543 3.54103 36.8594 2.50197 37.0781C-0.164045 37.6387 1.7226e-05 37.3789 1.7226e-05 40.9473C1.7226e-05 44.5156 -0.164045 44.2559 2.50197 44.8301C3.54103 45.0488 4.4297 45.2539 4.45705 45.2949C4.49806 45.3359 4.03322 46.0879 3.43166 46.9766C1.81838 49.3145 1.79103 49.1504 4.34767 51.707C6.90431 54.2637 6.74025 54.2363 9.07814 52.623C9.96681 52.0215 10.7188 51.5566 10.7598 51.5977C10.8008 51.6387 11.0195 52.5137 11.2383 53.5527C11.5528 55.0566 11.7031 55.5078 11.9766 55.7812L12.3047 56.123H15.1074H17.9102L18.2383 55.7812C18.5117 55.5078 18.6621 55.0566 18.9766 53.5527C19.1953 52.5137 19.4141 51.6387 19.4414 51.5977C19.4824 51.5566 20.2481 52.0215 21.1367 52.6367C23.2832 54.0996 23.4336 54.0996 24.8145 52.7598L25.8125 51.7891L25.8672 54.0312C25.9082 56.0684 25.9356 56.3145 26.2363 56.875C26.7149 57.7773 27.0567 58.2012 27.6445 58.5977L28.1641 58.9668V62.6309C28.1641 67.0195 28.2461 67.3613 29.5176 68.6465C30.7754 69.9043 31.1856 70 35.1367 70C38.9512 70 39.4707 69.8906 40.6465 68.7832C42.0137 67.5117 42.2461 66.5547 42.2461 62.0977V59.0625L43.0391 58.2695C44.3379 56.998 44.461 56.5742 44.5703 52.4316C44.6797 48.6172 44.7481 48.2891 45.6367 47.0996C45.9102 46.7168 46.6758 46.0332 47.3047 45.5547C49.2871 44.0918 49.916 43.5723 49.8613 43.4219C49.793 43.2305 48.4942 41.7266 48.3711 41.7129C48.1524 41.6855 45.1309 44.0098 44.3652 44.7754C43.5723 45.582 42.8887 46.6758 42.4238 47.8789C42.2461 48.3438 42.1777 49.2051 42.1231 51.9531C42.0274 55.8359 41.9863 55.9863 41.0567 56.6973L40.5645 57.0801L35.3555 57.1211C30.1738 57.1621 30.1465 57.1484 29.5449 56.8477C28.3965 56.2598 28.3828 56.2188 28.2871 52.3906C28.1777 48.6309 28.0684 47.9746 27.2617 46.4844C26.6328 45.3496 25.8262 44.502 24.1992 43.3398C22.3945 42.0273 21.4238 41.1797 20.3301 39.9492C13.9317 32.7168 13.7266 22.0391 19.8379 14.5469C23.2012 10.4316 28.6973 7.60156 33.5645 7.47852C34.7813 7.45117 34.7949 7.45117 34.836 7.79297C34.8633 7.98438 35.5469 9.02344 36.3672 10.1172C37.1738 11.2109 37.8848 12.2363 37.9258 12.4004C38.0625 12.8242 37.666 13.5078 37.2285 13.6172C37.0371 13.6719 35.9434 13.5762 34.8086 13.4121C32.0742 13.0293 31.582 13.0293 31.1856 13.4531C30.9121 13.7402 30.8027 14.2461 30.3379 17.459C30.0508 19.4688 29.8047 21.2324 29.8047 21.3555C29.8047 21.4785 29.9414 21.752 30.1192 21.9434C30.4063 22.2852 30.6113 22.3398 32.9492 22.6816C34.3438 22.8867 35.6152 23.1328 35.7656 23.2148C36.2168 23.4609 36.4356 24.0898 36.2031 24.5137C36.1074 24.7051 35.1094 25.5527 33.9883 26.4141C31.7188 28.123 31.5137 28.3965 31.9102 29.2031C32.1563 29.7363 36.0527 34.959 36.4356 35.2734C36.5586 35.3828 36.9004 35.4785 37.1875 35.4785C37.6113 35.4785 37.9942 35.2461 39.7578 33.9336C41.6445 32.5254 41.8633 32.3887 42.3281 32.4297C42.7383 32.457 42.9024 32.5527 43.0938 32.8945C43.3262 33.291 43.3262 33.3867 42.9707 35.916C42.6152 38.418 42.6152 38.5273 42.8477 38.8828C42.9707 39.0879 43.2168 39.3066 43.3809 39.3613C43.5449 39.4297 45.3223 39.7168 47.3457 39.9902C50.5586 40.4551 51.0371 40.4961 51.3516 40.332C51.543 40.2227 51.7617 40.0312 51.8301 39.8945C51.8985 39.7715 52.1172 38.5684 52.3086 37.2285C52.7188 34.3574 52.8281 34.1113 53.7442 34.1113H54.3457L55.8906 36.1621C57.4766 38.2676 57.9277 38.6641 58.5703 38.5C59.0215 38.3906 64.8731 34.0156 64.9824 33.7012C65.1192 33.3594 65.0918 32.8262 64.9277 32.5117C64.8457 32.3477 64.1348 31.377 63.3555 30.3242C62.5078 29.1895 61.9336 28.3008 61.9336 28.1094C61.9336 27.9316 62.0567 27.6309 62.2207 27.4258C62.5762 26.9746 62.836 26.9746 65.6934 27.3574C68.0313 27.6855 68.5098 27.6582 68.8379 27.166C69.0567 26.8379 70 20.6719 70 19.5918C70 19.1406 69.918 18.9082 69.6582 18.6621C69.4805 18.4707 69.2754 18.3203 69.1934 18.3203C68.5235 18.3203 64.2715 17.582 64.0254 17.4316C63.6152 17.1582 63.4785 16.584 63.7246 16.1465C63.834 15.9551 64.75 15.1621 65.7617 14.3965C66.7735 13.6309 67.7168 12.8652 67.8535 12.7012C68.4004 12.0312 68.25 11.7031 65.8027 8.44922C63.4375 5.31836 63.1777 5.05859 62.4395 5.25C62.2481 5.29102 61.1817 6.01562 60.0742 6.83594C57.8594 8.47656 57.5313 8.59961 56.9434 7.99805C56.5195 7.58789 56.5195 7.5332 56.9434 4.66211C57.2988 2.16016 57.2852 1.81836 56.711 1.44922C56.4102 1.25781 50.0938 0.273438 49.1367 0.273438C48.8633 0.273438 48.5488 0.396484 48.3301 0.574219ZM52.7598 3.22656L54.5781 3.47266L54.5098 4.16992C54.4688 4.53906 54.3594 5.45508 54.2637 6.19336C54.0586 7.73828 54.1817 8.47656 54.7969 9.36523C55.3985 10.2266 56.2735 10.6914 57.4766 10.7734C58.707 10.8555 59.2129 10.623 61.168 9.14648C61.8926 8.61328 62.5078 8.18945 62.5352 8.2168C63.1504 8.98242 65.0781 11.6348 65.0781 11.7168C65.0645 11.7715 64.5586 12.1953 63.9434 12.6465C61.5645 14.3828 61.1953 14.916 61.1817 16.543C61.1817 17.8145 61.5781 18.7031 62.4531 19.373C63.1504 19.9062 63.5742 20.0293 65.6934 20.3301C66.5957 20.4531 67.3613 20.5625 67.3887 20.5898C67.4297 20.6309 66.8555 24.9102 66.7871 24.9922C66.7735 25.0059 66.1172 24.9238 65.3516 24.8145C62.6582 24.4043 61.6602 24.541 60.6348 25.457C59.8145 26.168 59.541 26.8379 59.541 28.0957C59.541 29.3809 59.5957 29.4902 61.0449 31.4316C61.6055 32.1973 62.0703 32.8398 62.0703 32.8672C62.0703 32.9492 58.7344 35.4238 58.5977 35.4238C58.5293 35.4375 57.9414 34.7402 57.2988 33.8926C56.3008 32.5801 56 32.2793 55.3574 31.9512C54.0586 31.2812 52.4863 31.4453 51.4199 32.3477C50.5996 33.0312 50.3262 33.7012 50.0117 35.834C49.8613 36.9141 49.7246 37.8164 49.711 37.8301C49.6836 37.8711 45.3906 37.2422 45.336 37.1738C45.3086 37.1465 45.4043 36.3125 45.541 35.3418C45.8418 33.3457 45.7871 32.6484 45.3086 31.6914C44.7481 30.584 43.586 29.9277 42.1914 29.9141C41.1113 29.9141 40.6738 30.1191 38.8965 31.4316L37.4199 32.5254L36.1348 30.8301C35.4375 29.8867 34.8633 29.0664 34.8633 28.998C34.8633 28.9297 35.4375 28.4512 36.1348 27.9316C37.7617 26.6875 38.0625 26.4141 38.4317 25.6895C39.1289 24.3906 38.6914 22.2715 37.5567 21.4102C36.832 20.8633 36.2442 20.6719 34.3848 20.4121C33.3047 20.2617 32.6211 20.1113 32.5801 20.002C32.5117 19.8105 33.0313 15.873 33.1406 15.7637C33.1817 15.7227 33.961 15.8047 34.8633 15.9277C37.3789 16.2832 38.377 16.1191 39.3613 15.1484C40.1133 14.4102 40.4004 13.7266 40.3867 12.6465C40.3867 11.4707 40.1953 11.0469 38.7598 9.16016L37.7481 7.82031L39.5254 6.48047L41.3164 5.14062L41.5762 5.49609C43.7227 8.43555 44.3652 8.99609 45.7871 9.11914C46.9356 9.22852 47.7285 8.96875 48.5215 8.25781C49.3281 7.5332 49.5742 6.97266 49.834 5.1543C50.1895 2.69336 50.1485 2.83008 50.5586 2.91211C50.7637 2.95312 51.7481 3.08984 52.7598 3.22656ZM13.8496 32.9766C14.1367 33.9473 14.1367 34.043 13.836 34.043C13.3574 34.043 11.9629 34.6035 11.252 35.0684C9.85744 35.998 8.87306 37.3242 8.32619 38.9922C7.95705 40.168 7.99806 42.1641 8.43556 43.3535C8.79103 44.3379 9.66603 45.6367 10.418 46.2793C11.1016 46.8535 12.6465 47.6328 13.5352 47.8379C16.2285 48.4531 19.3731 47.209 20.8906 44.9121L21.2871 44.3242L22.4356 45.1445C23.9395 46.2109 24.6504 46.9219 25.1153 47.8105L25.4981 48.5352L24.336 49.6973C23.707 50.3398 23.1192 50.8594 23.0645 50.8594C22.9961 50.8594 22.4629 50.5312 21.8887 50.1348C21.3145 49.7246 20.6582 49.3008 20.4121 49.1777C19.4688 48.6855 17.9922 49.0547 17.4043 49.9434C17.2266 50.1895 16.9805 50.9551 16.8301 51.707C16.3516 53.9766 16.5703 53.7305 15.1074 53.7305C14 53.7305 13.8223 53.7031 13.7539 53.4844C13.7266 53.3613 13.5625 52.6504 13.3985 51.9121C13.2481 51.1602 13.0293 50.3945 12.9336 50.2031C12.5098 49.3965 11.7442 48.9453 10.7871 48.9453C10.1309 48.9453 9.72072 49.1504 8.31252 50.1211C7.72463 50.5312 7.2051 50.8594 7.15041 50.8594C7.00002 50.8594 5.19533 49.041 5.19533 48.9043C5.19533 48.8359 5.53713 48.3027 5.94728 47.7148C7.09572 46.0879 7.32814 45.3086 6.959 44.3379C6.6172 43.4219 6.00197 43.0391 4.21095 42.6562C3.51369 42.5059 2.80275 42.3555 2.63869 42.3145C2.33791 42.2461 2.32424 42.1777 2.32424 40.9473C2.32424 39.8398 2.35158 39.6621 2.57033 39.5938C2.69338 39.5664 3.47267 39.3887 4.29299 39.2246C5.93361 38.8965 6.56252 38.5137 6.91799 37.6387C7.34181 36.6406 7.13674 35.8887 5.96095 34.207C5.53713 33.6055 5.19533 33.0723 5.19533 33.0039C5.19533 32.8672 6.98635 31.0352 7.12306 31.0352C7.17775 31.0352 7.82033 31.4453 8.55861 31.9512C9.69338 32.7305 9.99416 32.8672 10.6094 32.9219C11.6895 33.0176 12.4551 32.5938 12.9063 31.6777C13.0977 31.2949 13.2754 30.8848 13.2754 30.7754C13.2891 30.6523 13.3711 30.9258 13.4668 31.377C13.5488 31.8281 13.7266 32.5391 13.8496 32.9766ZM15.5449 37.2422C16.2012 38.5547 17.0762 39.8535 18.252 41.2754L19.3047 42.5469L19.0723 43.0664C18.334 44.6934 16.0508 45.7871 14.2461 45.4043C12.2637 44.9668 10.7871 43.3398 10.582 41.3438C10.3633 39.2793 11.7578 37.2012 13.7949 36.5859C14.957 36.2168 15.0664 36.2578 15.5449 37.2422ZM39.7852 60.7031V61.7969H35.2051H30.625V60.7031V59.6094H35.2051H39.7852V60.7031ZM39.7852 64.75C39.7852 65.4336 39.5391 66.3223 39.252 66.6777C39.1152 66.8418 38.8008 67.1016 38.541 67.252C38.1035 67.5117 37.8711 67.5391 35.1231 67.5391C32.2793 67.5391 32.1563 67.5254 31.7051 67.2246C30.9258 66.7051 30.625 66.1172 30.625 65.1328V64.2578H35.2051H39.7852V64.75Z" fill="#00CCFF"/>
<path d="M48.7813 11.0742C46.7032 11.3203 44.9668 12.1816 43.3946 13.7402C41.6036 15.5176 40.7832 17.3496 40.6465 19.8926C40.5508 21.6699 40.8243 22.9277 41.6172 24.541C43.1485 27.6445 45.9786 29.4629 49.5059 29.6406C51.3243 29.7227 52.6231 29.4492 54.1133 28.7109C56.5606 27.4805 58.2832 25.3477 59.0079 22.6953C59.3223 21.5332 59.3223 19.2637 59.0215 18.0469C57.8321 13.4805 53.4844 10.5273 48.7813 11.0742ZM52.0625 13.8359C55.1934 14.834 57.2715 18.1836 56.752 21.3555C56.2051 24.6777 53.2793 27.1934 49.9707 27.207C45.5411 27.207 42.1641 22.9141 43.2715 18.6621C43.586 17.4727 44.1192 16.584 45.1309 15.5449C47.0313 13.6309 49.5059 13.0156 52.0625 13.8359Z" fill="#00CCFF"/>
<path d="M3.69145 7.25977C3.29497 7.79297 3.0352 8.27148 3.10356 8.32617C3.18559 8.36719 5.01762 9.67969 7.20512 11.2383C9.39262 12.8105 11.211 14.082 11.252 14.082C11.334 14.082 12.5645 12.3594 12.6192 12.168C12.6465 12.0586 4.93559 6.48047 4.56645 6.33008C4.48442 6.30273 4.08793 6.71289 3.69145 7.25977Z" fill="#003399"/>
<path d="M25.5664 13.7812C21.9571 16.4473 19.7012 20.1934 18.9903 24.6504C18.7578 26.127 18.9082 29.4082 19.2637 30.7617C20.1387 34.1113 21.6836 36.7773 23.9942 38.9375C25.3203 40.1816 26.5235 40.9609 28.752 42.041C31.2129 43.2305 32.3887 44.2695 33.1953 45.9648C33.5371 46.7168 33.9063 48.084 33.9063 48.6582V49.082H35.1504H36.4082L36.3125 48.1523C36.1621 46.7441 35.9844 46.1152 35.3145 44.748C34.8907 43.8594 34.4395 43.2031 33.8106 42.5195C32.7305 41.3438 31.8145 40.7148 30.0782 39.9219C27.6856 38.8281 26.5235 38.0215 25.0469 36.4355C23.2969 34.5625 22.1621 32.375 21.5743 29.75C21.2188 28.1367 21.2871 25.2383 21.711 23.625C22.545 20.5215 24.3633 17.8008 26.8243 15.9688C27.3301 15.5859 27.7539 15.2441 27.7539 15.2031C27.7539 15.1348 26.5235 13.125 26.4825 13.125C26.4688 13.125 26.0586 13.4258 25.5664 13.7812Z" fill="#00CCFF"/>
<path d="M5.81055 18.8399C3.25391 19.4825 1.14844 20.002 1.13477 20.0157C1.13477 20.0293 1.24414 20.5625 1.39453 21.2325C1.62695 22.2032 1.72266 22.4219 1.90039 22.3672C2.02344 22.3262 4.11523 21.793 6.5625 21.1914C8.99609 20.5762 11.0195 20.0567 11.0469 20.0293C11.1152 19.961 10.6641 18.0606 10.541 17.8282C10.4863 17.7325 8.91406 18.0743 5.81055 18.8399Z" fill="#003399"/>
<path d="M57.1484 44.4336V45.6641H61.25H65.3516V44.4336V43.2031H61.25H57.1484V44.4336Z" fill="#003399"/>
<path d="M55.9317 50.2578C55.5352 50.75 55.2207 51.1738 55.2481 51.2012C55.2754 51.2148 56.875 52.541 58.7891 54.1406L62.2754 57.0391L62.9316 56.3145C63.2871 55.9043 63.6426 55.4668 63.7246 55.3438C63.834 55.1387 63.3145 54.6602 60.4024 52.2266C58.5156 50.6543 56.8887 49.3555 56.8203 49.3555C56.7383 49.3555 56.3418 49.7656 55.9317 50.2578Z" fill="#003399"/>
<path d="M33.9062 53.1836V54.9609H35.1367H36.3672V53.1836V51.4062H35.1367H33.9062V53.1836Z" fill="#00CCFF"/>
<path d="M50.1758 56.6016V60.7031H51.4062H52.6367V56.6016V52.5H51.4062H50.1758V56.6016Z" fill="#003399"/>
</g>
<defs>
<clipPath id="clip0_8_108">
<rect width="70" height="70" fill="white"/>
</clipPath>
</defs>
</svg>
