<svg width="20" height="20" viewBox="0 0 20 20" fill="none" xmlns="http://www.w3.org/2000/svg">
<g clip-path="url(#clip0_104_252)">
<path d="M3.45712 0.683622C2.32041 0.937529 1.42978 1.64847 0.937593 2.71097C0.617281 3.39065 0.644624 2.74222 0.644624 10C0.644624 17.2578 0.617281 16.6094 0.937593 17.2891C1.32041 18.1133 1.89462 18.6875 2.71103 19.0625C3.39853 19.3789 2.77744 19.3555 10.0196 19.3555C17.254 19.3555 16.6095 19.3828 17.2892 19.0625C18.1134 18.6797 18.6876 18.1055 19.0626 17.2891C19.379 16.6016 19.3556 17.2227 19.3556 9.9805C19.3556 2.74612 19.3829 3.39065 19.0626 2.71097C18.6798 1.89065 18.1095 1.32034 17.2892 0.937529C16.6134 0.621122 17.2813 0.648466 10.0977 0.636747C4.87509 0.632841 3.64853 0.640654 3.45712 0.683622ZM16.3673 1.96097C17.2188 2.22659 17.8477 2.87503 18.0509 3.71097C18.1329 4.03128 18.1329 15.9688 18.0509 16.2891C17.8829 16.9766 17.4063 17.5703 16.7774 17.8672C16.2501 18.1211 16.6524 18.1055 9.96103 18.1055H3.84775L3.53134 18C2.60947 17.6836 2.01181 16.9414 1.91025 15.9766C1.86728 15.543 1.86728 4.45706 1.91025 4.02347C1.97275 3.43362 2.18369 2.98831 2.58603 2.58597C2.96494 2.20706 3.42978 1.97659 3.94541 1.91409C4.08603 1.89847 6.89072 1.88675 10.1759 1.89065C15.6485 1.89847 16.172 1.90237 16.3673 1.96097Z" fill="#898989"/>
<path d="M3.86328 3.86328L3.75 3.98047L3.75781 6.23828C3.76953 8.42578 3.77344 8.5 3.84766 8.60156C3.94531 8.73828 4.20312 8.86719 4.375 8.86719C4.54688 8.86719 4.80469 8.73828 4.90234 8.60156C4.97656 8.50391 4.98047 8.41797 5 7.21484L5.01953 5.9375L9.55078 10.4688L14.082 15H12.8359C11.4258 15 11.3984 15.0039 11.2305 15.293C11.0586 15.582 11.1328 15.9531 11.3984 16.1523C11.5 16.2266 11.5742 16.2305 13.7617 16.2422L16.0195 16.25L16.1367 16.1367L16.25 16.0195L16.2422 13.7617C16.2305 11.5742 16.2266 11.5 16.1523 11.3984C16.0508 11.2617 15.7969 11.1328 15.6172 11.1328C15.4219 11.1328 15.1602 11.2852 15.0742 11.4453C15.0078 11.5703 15 11.6875 15 12.832V14.082L10.4688 9.55078L5.9375 5.01953L7.21484 5C8.41797 4.98047 8.50391 4.97656 8.60156 4.90234C8.73828 4.80469 8.86719 4.54688 8.86719 4.375C8.86719 4.20312 8.73828 3.94531 8.60156 3.84766C8.5 3.77344 8.42578 3.76953 6.23828 3.75781L3.98047 3.75L3.86328 3.86328Z" fill="#898989"/>
</g>
<defs>
<clipPath id="clip0_104_252">
<rect width="20" height="20" fill="white"/>
</clipPath>
</defs>
</svg>
