<svg width="261" height="37" viewBox="0 0 261 37" fill="none" xmlns="http://www.w3.org/2000/svg">
<path d="M1.4922 33.0655C0.42383 33.3459 -0.21491 34.4394 0.065538 35.5077C0.345986 36.5761 1.43942 37.2148 2.5078 36.9344L1.4922 33.0655ZM259 4.99999L258.808 6.99072C259.896 7.09594 260.867 6.30727 260.988 5.22027C261.108 4.13327 260.333 3.1511 259.248 3.01544L259 4.99999ZM12 14.0001L11.1641 15.817L11.562 16.0001H12L12 14.0001ZM217.027 20.4431C218.1 20.7045 219.182 20.0465 219.443 18.9733C219.705 17.9001 219.047 16.8182 217.973 16.5568L217.027 20.4431ZM2.5078 36.9344C22.389 31.7156 72.3212 22.4506 124.435 15.3775C176.618 8.29508 230.609 3.46648 258.752 6.98455L259.248 3.01544C230.502 -0.578027 175.992 4.34335 123.897 11.4138C71.7339 18.4936 21.611 27.7843 1.4922 33.0655L2.5078 36.9344ZM259.192 3.00927C217.772 -0.99447 153.175 0.00926757 100.364 2.63042C73.9445 3.94169 50.4268 5.66017 34.1801 7.36741C26.0721 8.21943 19.714 9.07473 15.7021 9.88613C13.7649 10.2779 12.1425 10.7018 11.1599 11.2045C10.8993 11.3379 10.5799 11.5274 10.2945 11.7964C10.0238 12.0516 9.58965 12.5639 9.5227 13.3382C9.44961 14.1836 9.8527 14.8115 10.1997 15.1637C10.5219 15.4908 10.8924 15.692 11.1641 15.817L12.8358 12.1831C12.767 12.1514 12.8877 12.1926 13.0491 12.3564C13.2352 12.5453 13.5663 13.0068 13.5078 13.6827C13.4555 14.2876 13.1228 14.6274 13.038 14.7073C12.9385 14.8011 12.8895 14.8127 12.9818 14.7655C13.4109 14.546 14.519 14.2064 16.495 13.8068C20.3096 13.0353 26.5086 12.1956 34.5981 11.3455C50.7464 9.64862 74.1852 7.93466 100.562 6.6255C153.343 4.00582 217.696 3.01676 258.808 6.99072L259.192 3.00927ZM12 16.0001C28.241 16.0001 46.7759 15.6872 66.031 15.367C85.2935 15.0466 105.282 14.7187 124.46 14.6875C162.908 14.6249 197.806 15.7612 217.027 20.4431L217.973 16.5568C198.194 11.7387 162.783 10.6251 124.453 10.6875C105.241 10.7188 85.2223 11.0472 65.9645 11.3675C46.6992 11.6879 28.2008 12.0001 12 12.0001L12 16.0001Z" fill="#00CCFF"/>
</svg>
